<svg width="486" height="261" viewBox="0 0 486 261" fill="none" xmlns="http://www.w3.org/2000/svg">
<path d="M188.313 36.7569C195.686 34.7071 196.474 33.9115 197.505 34.4262C201.456 33.5783 203.162 32.0467 205.327 32.4654C208.216 32.178 208.894 31.4391 209.86 32.0431C211.36 30.9791 213.162 31.6125 214.722 30.9357C215.466 30.6226 216.202 30.509 216.961 30.5503C218.06 30.7373 218.772 30.9841 219.341 30.3018C220.508 30.1612 221.217 30.1311 221.949 29.7406C223.057 29.2129 224.26 29.3045 225.451 29.3188C227.827 28.7934 228.813 29.2753 229.79 28.9264C230.906 28.7143 232.056 28.4576 233.244 28.1949C235.739 27.9285 236.511 28.0472 237.192 27.5853C239.503 27.1492 241.918 27.1331 244.113 26.1998C245.822 26.4907 246.944 25.8022 248.222 25.6049C250.926 25.1479 253.722 25.0332 256.339 24.2724C258.653 23.5981 261.139 23.5313 263.292 22.327C264.977 21.9479 266.252 22.5041 267.392 21.9317C269.953 21.576 270.894 21.5099 271.8 21.2117C274.846 20.6621 275.17 20.4534 275.516 20.6379C276.403 20.7387 276.984 20.649 277.573 20.3598C278.437 20.3058 279.256 20.219 280.084 19.9326C285.383 17.8065 285.839 18.4495 286.346 18.1335C289.364 15.6066 291.833 15.4236 294.391 16.3365C296.116 17.497 296.804 17.0737 297.456 16.4182C298.647 16.4325 299.073 16.3667 299.43 16.1134C302.985 15.0096 303.396 15.1047 303.676 14.8633C306.377 14.1293 307.669 13.256 309.232 13.3714C311.001 13.5342 312.252 13.4204 313.18 12.2465C313.984 11.8053 314.541 12.5913 315.209 12.8053C317.096 12.1968 317.766 11.1422 318.999 11.4274C326.323 13.4277 326.815 13.7878 327.368 13.2664C328.569 14.6267 328.697 15.2014 329.334 14.7067C335.701 13.3274 336.165 13.2557 336.684 13.5324C340.224 13.1046 340.882 13.003 341.528 12.824C343.571 12.7068 344.191 12.6111 344.78 12.3219C350.146 11.652 350.456 11.6042 350.78 11.3956C354.189 9.60096 355.059 9.5856 355.958 9.7638C360.961 8.27807 362.604 8.14319 363.738 7.01689C368.219 3.94713 368.335 3.92919 369.598 4.92317C371.338 5.92286 371.517 6.56899 371.964 6.89634C372.911 7.38423 373.506 7.13376 374.108 6.922C376.943 7.83176 378.027 7.66441 379.081 7.3035C380.986 5.78072 381.228 5.54532 381.525 5.42008C382.681 5.20207 383.324 5.2613 383.785 4.91262C384.553 4.23918 385.11 4.50987 385.688 5.17366C389.129 1.78879 389.62 1.63368 389.847 2.5895C390.688 4.44138 390.849 4.45618 391.801 3.43719C397.705 -0.169376 398.012 0.0210564 398.405 0C400.692 0.954722 401.008 1.4608 400.639 2.1519C403.986 5.59866 404.519 5.71453 404.805 6.02707C407.429 7.88097 406.84 9.20054 407.704 9.66167C409.984 12.3615 410.773 11.566 411.294 12.1196C412.689 13.45 413.782 13.5984 414.044 14.7864C414.564 17.1239 414.239 17.3325 413.828 17.2375C413.051 17.08 412.301 17.3544 411.556 17.1523C409.14 16.1381 408.366 16.2577 407.628 16.6095C406.375 19.0223 405.902 19.8088 404.541 18.9488C403.59 22.5438 404.093 22.4661 404.51 22.5999C406.446 23.8467 406.527 24.1117 406.801 24.3468C409.118 24.4647 409.693 24.8515 410.301 25.1936C411.314 26.6226 411.001 26.9086 411.32 27.1765C413.805 28.8935 414.198 28.8724 414.505 29.0628C418.392 30.8803 418.74 30.8265 419.077 30.6953C422.114 30.8605 425.071 30.2454 428.034 29.6691C429.002 29.5197 429.294 30.3861 429.931 29.8914C431.077 29.3577 432.295 28.7734 433.555 28.46C435.076 28.3043 435.586 28.2654 436.02 28.0001C436.961 27.4189 437.432 27.901 437.804 27.4869C443.098 26.8676 443.757 26.766 444.385 26.4708C445.326 26.4048 446.228 26.3448 447.115 25.9304C449.096 25.6643 449.676 25.5746 450.182 25.2587C451.14 23.7632 451.939 23.7985 452.686 23.7624C456.665 24.3767 457.013 24.3229 457.344 24.153C458.09 21.5409 457.795 20.9127 458.465 20.8885C460.633 22.0994 461.485 21.9679 462.256 22.0866C465.556 21.8942 466.339 22.0904 467.018 21.8666C467.541 20.1212 467.636 19.195 468.706 19.7037C475.293 19.2416 475.674 19.1431 475.998 18.9344C477.52 19.294 477.83 19.2462 478.128 19.1209C479.349 18.8135 479.286 18.1495 479.229 17.5241C479.35 15.4841 479.951 14.7571 481.187 14.8041C480.643 17.1868 480.128 18.2175 480.54 19.343C482.82 22.0428 483.094 23.3083 483.473 24.4785C484.144 25.4847 484.248 25.9046 483.933 26.4289C485.863 31.9967 486.417 33.5361 485.697 35.0344C481.671 35.656 480.704 35.8054 479.811 36.1811C478.388 37.7483 478.543 38.2396 478.344 38.746C479.42 40.8389 480.331 40.5794 480.689 41.3564C479.611 42.5929 478.694 42.2986 477.744 43.0793C475.133 43.3636 475.181 44.1885 475.756 45.0905C476.424 46.335 475.668 46.5707 475.859 47.2942C473.095 46.3338 472.99 45.3988 472.814 44.5144C470.458 44.4025 470.02 43.8756 469.457 43.5662C469.268 47.4794 468.646 47.2981 468.488 47.5602C466.797 48.4158 466.205 48.4281 465.74 47.9846C459.929 46.0281 458.27 46.3239 456.486 46.837C457.937 48.2776 460.445 49.1191 463.06 49.6269C465.762 50.4385 466.611 51.0604 467.192 52.0012C468.041 52.6231 467.845 53.4064 467.837 54.1212C469.532 55.6033 470.246 55.0967 470.345 55.993C466.576 58.2792 466.26 58.2883 465.912 58.3421C464.983 58.4855 464.391 59.5281 465.112 60.0906C465.794 60.659 466.158 61.4748 466.938 61.9092C467.648 64.455 468.316 65.1843 467.476 65.3932C466.034 63.7531 465.641 63.2589 464.941 63.0895C463.788 62.0389 463.439 62.0927 462.701 63.4749C460.165 65.0159 460.078 64.197 459.736 63.7743C458.455 64.2098 457.904 64.493 457.672 65.044C457.176 66.706 456.625 66.474 456.131 66.3522C457.09 66.9175 456.641 68.374 457.502 68.5582C459.79 70.5433 460.436 70.8795 461.071 71.1382C464.781 70.0105 465.48 69.1495 466.364 68.9733C467.801 70.5748 468.628 69.258 469.218 69.484C471.169 70.0548 472.077 70.0334 472.92 70.6167C473.427 71.8463 472.986 72.0729 472.718 72.3917C471.551 73.0475 470.336 72.8784 469.1 72.8314C468.304 71.5275 467.388 72.2635 466.652 72.3771C465.955 72.4847 465.255 72.3153 464.589 72.6164C463.723 73.9391 462.844 74.154 461.927 74.3749C460.19 73.6521 459.655 74.2897 459.009 74.4688C460.077 78.3069 459.362 78.8135 458.624 79.1653C457.555 79.687 456.379 80.0271 455.173 80.1737C452.231 80.6279 449.271 80.966 446.284 81.3875C443.575 81.8059 440.737 82.1648 438.134 83.28C437.14 83.5128 436.253 83.9272 435.228 83.9665C432.143 84.0068 430.732 84.1059 430 85.5268C426.957 86.3533 425.307 86.4495 423.759 87.2038C421.832 87.3031 421.168 87.366 420.638 88.0423C415.042 87.4794 413.762 88.4301 412.384 88.9996C411.261 88.6578 410.871 89.471 410.239 88.974C408.745 89.5615 408.161 89.8893 407.503 89.991C410.97 90.8825 411.7 91.7606 412.468 91.6024C413.269 91.3994 414.056 91.8725 414.842 91.8304C415.343 93.0214 416.385 92.583 416.954 92.9312C418.414 94.1722 419.203 94.4071 419.975 94.5258C418.096 95.9652 416.524 97.0798 414.622 97.3339C413.153 96.8076 412.861 96.9715 412.537 97.6954C412.848 100.739 413.789 100.158 414.063 100.393C414.188 105.05 414.558 106.42 413.128 105.888C415.987 106.437 416.223 107.193 416.143 107.959C415.376 109.663 415.706 110.008 417.317 109.918C416.886 110.46 416.576 111.023 417 111.711C417.796 114.045 418.908 115.34 419.917 114.431C420.694 114.588 421.346 114.448 421.932 113.882C422.951 114.834 423.517 114.905 424.187 114.881C425.028 116.218 425.647 116.122 426.487 115.913C424.543 117.442 424.415 117.383 423.822 115.849C422.961 115.665 422.953 116.895 422.181 116.776C420.794 117.03 420.091 117.099 419.37 117.052C418.193 116.362 417.357 117.363 416.136 117.67C418.268 117.103 419.233 117.192 420.162 117.048C421.158 118.361 419.874 118.005 418.966 118.541C417.412 119.257 416.969 120.237 416.051 120.458C417.274 123.241 416.613 124.096 415.497 124.308C414.386 124.559 413.371 124.914 412.436 125.534C410.45 125.761 408.901 126 407.347 126.201C406.605 126.276 405.366 125.952 405.349 127.381C405.945 128.161 406.526 128.071 407.086 128.104C408.215 129 408.349 130.128 408.853 131.081C409.426 132.221 411.171 132.744 412.21 132.029C415.882 131.423 417.171 131.303 418.439 130.79C419.482 130.867 420.009 130.429 420.601 130.417C423.261 130.957 424.002 130.367 424.529 129.414C424.924 128.639 425.472 128.079 426.312 127.87C427.565 127.518 428.203 128.054 428.001 129.314C427.793 130.535 428.228 131.3 429.331 131.764C430.644 132.314 431.943 133.025 433.163 131.687C434.894 132.371 436.273 132.832 436.598 134.169C436.918 135.467 437.498 135.378 438.329 134.853C439.737 133.962 441.181 133.818 442.685 134.577C444.027 136.589 445.48 136.246 446.65 135.867C448.13 135.441 449.583 136.128 451.057 135.662C452.454 140.599 451.671 140.918 450.852 141.005C450.077 141.125 449.264 141.25 448.458 141.414C450.816 141.288 453.115 140.775 455.485 140.726C457.296 140.644 459.202 141.697 459.722 143.52C459.981 144.431 460.556 145.333 460.164 146.384C461.991 149.749 462.927 151.705 461.141 152.971C459.098 152.573 458.194 154.417 456.693 154.451C456.017 154.436 455.678 155.321 454.906 155.202C455.137 156.95 454.467 157.49 453.636 157.499C451.272 157.587 450.418 159.502 449.138 160.968C448.745 161.504 448.075 161.528 447.355 161.996C448.326 162.124 449.079 162.126 449.678 162.668C449.957 166.271 449.418 166.632 448.694 166.823C446.137 167.455 443.48 167.707 440.982 167.181C439.183 166.825 438.179 167.257 436.917 168.324C435.858 169.161 434.467 169.654 432.987 169.05C431.698 170.2 432.234 171.108 431.636 172.112C431.071 173.071 430.043 172.833 429.15 172.694C426.866 173.047 426.27 172.782 426.555 171.549C424.953 171.955 423.481 170.121 421.874 171.519C424.846 176.648 426.281 177.219 425.984 178.375C423.599 178.584 422.411 178.847 421.271 179.42C419.159 178.319 418.423 178.432 417.601 178.757C416.851 179.032 415.985 179.324 415.57 178.437C415.111 177.517 415.834 176.811 416.364 176.134C418.711 176.961 419.468 176.725 419.944 176.216C418.778 174.057 418.034 173.855 417.09 174.16C415.666 174.696 414.178 174.807 412.677 174.841C411.962 174.832 411.152 174.72 410.431 175.188C412.205 177.688 411.189 177.528 410.308 177.981C411.029 178.544 411.729 178.713 411.616 179.523C411.477 180.416 410.729 180.968 410.009 180.921C408.111 180.698 406.835 181.926 405.289 182.442C406.698 183.611 407.452 184.129 408.273 182.774C408.779 181.943 409.452 182.195 409.813 183.249C411.452 184.106 412.214 184.424 412.935 184.987C412.234 188.147 409.998 188.809 407.765 189.749C407.169 189.999 406.425 189.797 405.749 189.782C402.877 188.64 403.649 189.274 402.976 190.052C402.408 190.734 401.556 190.866 400.722 190.598C399.626 190.173 398.474 190.153 397.33 189.933C396.109 189.725 394.861 189.601 393.718 190.411C391.262 192.217 390.024 192.924 388.812 193.547C385.914 193.003 383.544 194.083 383.36 195.459C383.212 196.552 382.893 196.799 381.875 196.362C381.035 196.055 379.745 196.175 380.575 194.62C379.351 194.136 378.705 194.315 378.127 194.681C377.038 195.325 376.001 195.287 375.078 194.439C374.205 193.662 373.603 193.874 373.115 194.821C369.822 195.567 368.065 195.482 366.657 196.888C365.721 194.417 365.191 194.578 364.654 194.185C363.704 193.42 362.766 193.763 361.852 194.261C358.318 189.337 356.804 188.778 355.42 189.824C354.751 190.364 354.295 190.751 353.494 189.924C352.966 189.331 352.04 189.752 351.767 190.547C351.353 191.72 351.088 191.801 350.197 190.908C349.402 190.119 348.681 190.072 347.779 190.647C347.02 191.121 346.219 191.324 345.314 191.107C344.164 190.849 343.905 190.968 342.107 191.642C343.319 193.08 342.846 193.351 342.408 193.339C340.13 193.215 337.682 193.792 335.746 192.03C333.601 192.004 332.002 191.656 330.621 192.464C331.984 192.055 333.262 192.373 334.591 192.763C333.496 194.398 332.596 194.22 331.685 194.48C330.431 194.832 329.148 194.99 327.894 195.342C326.492 195.757 325.982 195.281 326.238 193.854C323.861 193.349 322.944 193.57 322.583 192.516C322.255 191.417 323.121 191.125 323.982 190.794C322.874 190.807 322.18 191.191 321.937 192.18C319.608 192.5 318.787 194.886 316.968 194.651C315.894 196.68 315.4 197.073 315.582 197.996C315.779 199.274 315.261 200.028 313.945 200.231C315.08 200.135 316.134 200.289 317.04 201.021C316.699 198.815 317.041 198.207 317.958 197.986C318.985 197.709 320.037 197.586 321.082 197.425C321.939 197.332 322.482 197.763 322.387 198.69C320.124 199.435 319.811 199.206 319.376 199.471C321.03 201.198 321.278 201.516 321.2 202.043C319.265 202.858 318.25 203.212 317.255 203.445C316.487 203.604 315.853 203.345 315.578 202.594C315.292 201.767 314.774 201.49 313.928 201.66C312.508 201.959 311.12 202.213 310.095 200.706C310.381 202.049 310.185 202.317 309.068 202.014C308.401 201.8 307.478 201.982 306.983 200.83C306.775 202.566 305.766 202.96 304.253 202.916C304.929 203.446 306.076 203.427 305.618 204.568C305.273 205.414 303.474 206.088 302.468 205.728C301.628 205.422 301.529 205.041 301.96 203.468C300.948 203.585 299.992 203.812 299.086 203.08C295.234 204.824 294.227 204.979 293.077 204.721C292.333 204.519 291.514 204.606 290.82 204.99C289.674 205.524 288.456 205.593 287.312 205.373C285.764 205.097 284.445 205.538 283.081 205.947C281.413 206.442 279.728 206.822 277.974 206.498C276.997 206.332 276.059 206.675 275.085 206.785C274.034 206.908 272.95 207.075 271.819 206.933C270.726 206.785 269.8 207.72 268.671 207.855C268.013 207.957 267.406 208.13 266.747 207.716C260.845 207.993 258.35 209.805 255.551 209.643C253.22 211.231 250.948 211.146 248.681 211.1C247.149 213.239 246.545 213.689 245.89 214.067C243.317 214.861 242.727 214.635 242.453 213.885C242.017 212.604 240.725 212.447 239.792 211.798C237.512 213.974 235.377 213.748 233.397 214.014C230.845 214.171 230.211 214.427 230.128 215.431C227.986 215.167 226.873 215.656 225.747 216.067C226.204 211.835 229.145 210.351 232.329 210.692C233.133 210.766 233.901 210.607 234.66 210.133C235.86 209.433 237.203 209.662 238.463 209.863C242.233 208.608 244.755 208.258 247.403 208.721C248.463 208.914 249.437 208.803 250.479 208.365C251.443 207.939 252.548 207.649 253.733 207.625C249.909 207.502 247.295 206.994 244.743 207.665C242.191 208.852 240.747 208.996 239.269 207.638C238.631 207.103 237.717 207.085 237.021 207.708C236.274 208.259 235.523 208.534 234.615 208.555C233.9 208.547 233.335 208.991 232.739 209.241C232.007 209.632 231.212 209.873 230.574 209.338C229.713 208.638 228.951 208.835 228.192 209.309C227.141 209.947 226.102 210.147 224.922 209.695C223.96 209.368 222.909 209.49 221.962 210.033C220.718 210.701 219.24 210.374 217.909 210.738C217.572 208.808 218.164 208.281 219.027 207.712C217.935 208.079 216.943 208.073 216.083 208.404C215.971 212.305 216.463 212.666 217.508 212.504C218.238 212.352 218.899 212.012 219.613 212.021C218.569 214.243 217.423 215.292 216.119 216.087C211.977 216.212 212.718 215.107 214.001 214.948C211.646 215.351 209.502 215.841 207.251 215.634C205.315 215.417 203.436 216.341 201.42 216.375C199.121 216.374 196.939 217.384 194.589 217.311C191.257 218.578 189.22 218.734 187.491 219.596C185.069 219.058 183.527 219.851 181.967 220.013C181.026 220.079 180.07 220.306 179.12 220.056C175.928 221.976 173.877 222.292 171.66 221.287C169.287 222.089 168.236 222.212 167.107 222.347C165.47 222.52 163.808 222.539 162.316 223.403C158.445 224.001 157.433 224.118 156.313 224.053C155.438 224.03 154.625 224.155 154.119 224.986C157.147 224.32 159.232 224.474 161.2 224.131C161.897 224.023 162.546 224.121 163.195 224.219C164.854 224.438 166.54 224.575 168.243 224.312C170.366 223.944 171.987 225.2 172.387 227.278C172.569 228.202 172.758 229.163 172.785 230.11C169.847 228.027 167.641 229.398 165.792 229.486C163.831 231.414 163.983 232.658 164.008 233.843C164.023 234.713 163.675 235.282 162.838 235.768C163.717 235.553 164.25 235.154 164.618 234.463C166.568 232.973 167.054 232.779 166.776 231.751C166.603 231.144 167.332 230.477 167.987 230.098C169.337 231.911 170.135 231.946 171.053 231.725C172.795 231.456 173.962 231.316 174.064 233.004C175.15 230.538 176.064 230.04 177.276 229.932C178.571 229.851 179.86 229.731 181.126 229.457C182.243 229.245 183.52 229.047 183.997 230.599C186.005 230.764 187.246 230.85 188.425 230.272C190.012 229.511 191.802 230.067 193.369 229.429C195.608 228.529 198.133 228.971 200.223 227.618C203.728 227.473 205.55 226.954 207.486 226.655C208.986 225.076 209.996 225.198 211.149 226.248C214.385 224.877 216.928 224.405 219.158 223.188C220.771 222.345 222.883 221.9 224.878 221.988C227.356 222.121 229.589 221.182 231.944 220.778C233.177 220.548 234.321 220.768 235.476 220.55C237.915 220.174 240.488 220.41 242.807 219.26C245.997 219.639 247.176 219.061 248.373 218.599C249.052 218.375 249.725 218.112 250.451 218.198C252.104 218.379 253.736 218.167 255.251 217.457C256.034 217.138 256.71 217.153 257.452 217.593C259.978 219.066 260.321 218.973 262.08 216.76C262.642 216.039 263.297 215.66 264.214 215.955C266.623 214.869 265.381 214.784 264.14 215.213C263.707 213.179 264.716 212.786 265.779 212.74C267.191 212.641 268.576 212.626 269.972 212.688C271.292 212.761 271.637 213.461 270.858 214.572C272.979 215.989 273.803 215.425 274.616 214.785C271.953 213.967 271.724 213.249 271.863 212.356C272.047 211.495 272.685 211.516 273.45 211.596C274.82 211.741 276.237 211.681 277.601 211.272C278.965 210.863 280.46 210.791 281.847 210.537C282.505 210.435 283.238 210.56 283.193 209.497C285.048 208.933 285.748 208.587 286.474 208.158C287.382 207.622 288.338 207.395 289.368 207.394C288.494 209.432 287.502 209.426 286.594 209.963C287.705 209.712 288.813 209.699 289.947 209.604C290.695 209.567 291.409 209.576 292.062 209.951C293.738 209.771 294.199 208.907 293.785 208.02C292.986 206.439 293.236 206.004 294.174 206.177C295.114 204.565 295.927 204.439 296.788 204.624C297.681 204.763 298.474 204.76 299.146 203.982C300.03 207.651 299.765 208.246 299.071 208.631C300.498 209.401 301.91 209.818 303.455 209.301C303.754 211.752 303.052 211.821 302.319 211.696C301.297 211.497 300.63 211.799 300.443 212.898C299.687 213.648 299.887 214.172 299.926 214.682C300.016 215.778 299.421 216.543 298.507 217.041C297.781 217.47 297.089 217.101 297.163 216.297C297.335 214.844 296.389 215.386 295.954 215.652C295.079 216.144 294.284 216.9 293.105 216.448C290.151 217.34 290.52 216.649 290.51 215.818C288.724 217.6 286.458 217.554 284.374 217.915C283.6 218.035 282.888 218.303 282.188 218.649C281.262 219.069 280.274 219.341 279.297 218.659C275.08 219.588 271.861 220.045 268.576 220.077C267.114 220.104 265.938 220.96 264.527 221.059C260.37 221.344 256.305 222.487 252.16 222.849C250.004 222.231 249.203 222.434 248.456 222.985C249.623 223.36 250.266 223.419 250.291 224.089C247.09 225.178 246.322 225.336 245.664 225.953C242.953 225.341 240.873 227.01 238.939 226.04C237.081 226.327 236.611 226.875 235.798 226.485C235.023 226.089 235.264 225.339 235.356 224.651C235.027 226.882 234.527 227.236 232.335 226.901C232.467 228.783 232.285 229.405 231.237 229.805C230.228 230.199 229.209 229.762 228.223 229.795C229.182 229.845 230.127 230.056 231.094 229.906C228.323 232.752 227.081 232.151 225.973 231.648C224.77 231.041 223.415 231.251 222.191 230.766C223.202 228.588 224.298 229.014 225.4 228.962C222.842 228.565 221.142 229.62 219.251 229.951C218.335 231.718 216.864 232.46 216.382 233.961C213.994 234.409 212.984 234.288 212.186 233.737C211.024 232.886 209.842 233.188 208.66 233.489C207.298 236.474 206.365 235.825 205.51 234.649C205.102 235.861 204.731 236.791 203.507 236.821C200.528 235.498 199.078 236.118 198.864 237.815C198.627 239.873 197.707 240.332 195.994 239.249C194.153 238.107 193.528 237.649 192.656 238.417C190.73 240.577 190.641 241.027 190.168 241.298C188.276 240.6 188.661 241.293 188.125 241.931C187.589 242.568 186.892 242.676 186.184 242.706C185.153 242.707 184.096 242.791 183.146 242.541C182.235 242.285 181.35 241.946 181.055 240.803C180.846 239.963 180.149 239.556 179.393 240.307C178.702 240.968 178.065 240.947 177.323 240.507C175.233 241.345 174.387 241.515 173.345 241.438C172.895 241.349 173.857 241.161 174.867 241.798C175.863 244.141 173.668 245.074 171.125 245.031C170.327 244.996 169.919 244.662 169.579 244.002C169.063 242.971 168.587 242.966 167.893 243.865C167.495 244.363 167.191 244.965 166.626 245.409C165.878 245.96 165.089 246.24 164.279 245.613C163.379 244.919 162.197 245.22 161.244 244.694C157.624 246.402 156.049 247.755 154.057 247.944C152.963 246.765 152.103 247.096 151.037 247.38C149.738 247.699 148.619 248.664 147.509 249.43C146.866 249.886 146.267 250.375 145.493 250.495C143.695 252.199 142.343 252.17 140.795 251.894C139.979 251.742 139.344 251.999 138.761 252.842C138.205 253.602 137.374 254.126 136.964 255.061C136.752 255.49 134.623 255.304 133.932 254.935C133.068 254.474 133.526 253.848 133.624 253.199C133.82 251.901 134.448 251.09 136.035 250.845C134.293 250.599 133.677 250.971 133.454 252.353C132.597 254.507 132.014 254.835 131.112 254.38C130.453 253.966 129.735 253.681 129.247 253.082C128.713 252.451 128.043 252.475 127.37 252.738C127.243 255.254 126.961 256.249 126.768 257.309C126.635 258.242 125.283 258.728 124.419 258.267C123.503 255.158 123.396 254.976 123.8 253.487C120.667 253.733 119.771 253.832 118.672 253.645C117.329 253.416 117.159 253.601 117.291 254.968C111.885 254.613 110.751 254.709 109.909 255.672C106.29 254.566 105.861 253.839 104.973 254.254C104.39 254.582 103.857 254.981 103.235 255.315C103.126 253.072 102.914 251.956 101.728 250.95C101.046 250.381 101.397 249.574 101.284 248.839C100.846 249.857 101.067 250.774 101.636 251.638C99.4123 252.378 99.373 251.353 99.2683 250.418C99.4237 251.425 99.4569 252.41 100.556 253.112C101.259 253.559 101.433 254.681 100.98 255.346C100.495 256.055 99.3548 256.112 98.6161 255.949C97.5112 255.723 98.416 254.909 98.6449 254.081C96.6501 255.023 94.5922 254.786 92.7523 255.705C91.8711 256.158 90.8614 256.036 89.9024 255.986C89.0149 255.885 88.7973 255.245 89.1958 254.232C89.7548 252.719 89.5134 252.439 87.9203 252.646C85.7465 252.942 83.6413 253.425 81.4433 253.051C80.4664 252.885 79.567 252.707 79.0364 251.837C77.1305 251.815 76.1624 251.449 75.9772 250.249C73.5808 251.927 73.3931 251.995 71.3855 251.314C69.8345 252.307 68.8876 252.334 68.0419 252.504C66.4548 252.75 64.8556 252.917 63.343 253.389C62.3992 253.693 61.8395 254.175 61.7954 255.173C61.7393 256.093 61.5699 256.793 60.2802 256.398C57.378 258.907 55.773 259.036 54.2246 259.275C53.2181 259.43 52.2681 259.696 51.5688 260.557C50.8902 261.296 50.3838 261.097 50.145 260.063C49.96 259.379 50.3409 258.765 50.3107 258.056C44.3271 256.523 43.1627 256.425 42.5513 254.775C40.7839 257.704 39.6407 258.514 37.3354 257.959C36.43 257.742 35.5812 257.635 34.6792 258.21C33.6283 258.848 33.0323 258.068 32.4511 257.128C27.8468 256.57 26.2712 256.377 24.8272 257.036C23.9668 257.367 23.4841 256.808 23.2663 256.168C22.9174 255.191 22.2263 254.822 21.3061 254.766C20.4305 254.743 19.8555 254.356 19.4322 253.668C20.2173 251.565 20.7917 250.922 21.3601 250.239C24.0341 249.589 25.517 249.439 27.006 249.328C26.1375 251.404 25.8251 251.69 25.9028 252.193C27.6746 252.118 28.3418 252.332 28.9882 252.668C29.7448 252.948 30.4894 253.15 30.8879 252.137C31.2449 251.369 32.1204 251.392 32.6413 250.915C34.9105 250.723 36.2591 249.96 37.7034 249.817C36.4729 248.778 35.5199 248.767 34.5402 248.839C33.9088 248.857 33.1286 248.938 33.0566 247.958C30.9927 247.682 29.1941 247.841 27.318 248.012C26.3383 248.084 25.3258 248.2 24.4058 248.659C23.4471 249.124 22.402 249.286 21.315 249.176C18.9206 249.07 18.5158 249.529 18.6205 250.464C17.1973 251.001 15.792 251.654 14.1838 251.506C12.8556 251.632 12.54 251.641 12.1916 251.695C10.7385 252.038 10.3722 251.975 10.0238 252.029C5.6614 252.782 4.96748 252.651 4.28548 252.598C1.86774 253.368 0.164215 253.116 -1.40188 253.754C-1.8004 254.766 -2.828 254.529 -3.60507 254.886C-7.61934 255.07 -8.67908 255.908 -9.77209 255.759C-10.1839 254.119 -9.86251 253.633 -9.45177 253.213C-7.91188 253.689 -6.99769 253.706 -6.03019 253.041C-8.98731 253.141 -9.11273 252.328 -9.62793 252.329C-9.48899 250.405 -8.59877 250.267 -7.80377 250.026C-8.53643 249.901 -9.46516 250.56 -10.3857 249.988C-11.0947 249.503 -11.9788 250.195 -12.6671 249.587C-15.1807 249.223 -16.4286 249.098 -16.8954 250.438C-18.2449 249.656 -19.2932 249.54 -20.1571 249.079C-19.3805 247.691 -18.5618 247.089 -17.6419 246.63C-14.9981 245.271 -12.0945 245.338 -9.40895 244.249C-9.37704 242.659 -11.7142 243.693 -14.2128 243.683C-15.8358 243.696 -17.4346 244.378 -18.954 243.266C-19.6184 242.813 -20.5651 243.356 -21.2115 243.02C-22.2868 242.472 -23.1624 242.449 -24.124 243.152C-25.2024 242.328 -26.1523 242.593 -26.766 242.213C-28.0081 241.612 -28.8567 242.02 -29.6844 242.306C-32.2715 243.776 -31.7677 244.729 -32.3361 245.411C-36.2465 244.984 -37.0475 245.187 -37.2535 244.109C-37.4923 243.076 -37.0788 242.418 -36.0902 242.146C-35.0689 241.83 -33.991 241.624 -32.9936 241.153C-33.9172 240.304 -34.8847 240.969 -35.8436 240.919C-38.0681 241.143 -39.5033 241.603 -40.6951 240.558C-43.3118 242.349 -44.7262 242.687 -46.2928 242.294C-46.7021 239.9 -44.9869 239.715 -43.3849 239.309C-42.114 238.043 -41.161 238.054 -40.3244 237.568C-38.815 236.82 -36.9745 236.932 -35.498 235.713C-36.5913 235.05 -37.6453 235.411 -38.5653 235.87C-39.1935 236.165 -39.807 236.299 -40.471 236.362C-43.1648 233.29 -44.1715 232.93 -46.1842 233.756C-47.3812 234.219 -48.5397 234.16 -49.6893 233.901C-51.6576 234.245 -52.3515 234.114 -53.0096 234.216C-54.2421 234.961 -55.1678 235.896 -56.6035 235.325C-59.7628 236.17 -61.7014 236.192 -63.3566 237.28C-65.6764 237.4 -66.4 237.591 -67.031 238.124C-73.3321 238.899 -74.3445 239.016 -75.1213 239.889C-79.4211 240.79 -80.1117 241.452 -80.8714 240.895C-83.1195 241.48 -84.4027 242.154 -85.7545 242.64C-86.4424 242.548 -87.0829 242.251 -87.7768 242.12C-90.383 241.413 -90.3384 240.93 -89.3351 240.498C-85.0603 237.381 -81.8628 236.015 -78.3372 235.233C-74.4217 234.153 -72.3491 233.714 -70.3245 232.965C-68.478 233.116 -67.8529 232.544 -67.3323 231.552C-67.0288 230.95 -66.5855 230.486 -65.9126 230.223C-60.7532 227.445 -60.1099 227.504 -59.8153 227.102C-58.994 225.746 -57.5079 225.874 -56.2097 225.554C-55.4861 225.363 -54.6819 225.437 -53.9883 225.053C-53.4019 224.487 -52.7109 224.856 -52.2495 224.507C-50.9128 223.666 -49.6765 224.229 -48.6911 223.68C-45.9847 222.47 -44.77 222.123 -43.5372 221.894C-42.0334 221.622 -40.4789 221.421 -39.3062 220.289C-36.7302 220.288 -35.3759 219.048 -33.7563 218.243C-34.8761 218.178 -35.7425 218.471 -36.6804 218.814C-38.5383 219.616 -40.4499 220.069 -42.3148 218.772C-42.8134 216.312 -42.0094 216.386 -41.2738 216.273C-40.4162 216.18 -39.7613 215.801 -39.455 214.961C-37.0344 213.954 -36.7965 213.441 -37.0888 212.575C-38.903 211.349 -39.2515 211.403 -39.6446 211.424C-41.3743 212.285 -41.7645 212.068 -42.1664 212.289C-44.8679 211.477 -45.9579 211.606 -46.982 212.16C-48.2239 212.075 -48.8344 211.971 -49.4954 212.31C-50.353 212.403 -51.2376 212.064 -52.0952 212.157C-54.5488 212.694 -54.8733 212.903 -55.2428 212.564C-51.7659 209.926 -50.6071 210.5 -49.4546 210.521C-45.3017 207.898 -44.3785 207.716 -43.4973 207.262C-42.1333 207.369 -41.0466 206.963 -40.2223 205.885C-43.147 205.425 -43.7991 205.565 -44.3885 205.854C-45.2043 206.218 -46.0619 206.311 -46.9434 206.249C-48.197 206.601 -49.376 207.179 -50.7907 207.001C-51.3953 206.936 -52.0622 207.237 -52.5891 207.675C-55.0726 208.019 -57.4635 208.705 -59.974 208.617C-61.0975 207.245 -60.5288 207.078 -60.2222 206.753C-59.481 206.163 -59.8986 204.999 -59.202 204.376C-56.2867 204.005 -55.0565 204.529 -53.7907 204.769C-48.8996 201.28 -47.4465 200.936 -46.2616 200.397C-48.6354 199.653 -50.961 200.25 -53.2714 201.201C-56.7765 201.346 -57.7707 202.094 -58.7479 201.413C-59.6237 200.874 -60.5468 201.056 -61.4819 201.161C-62.539 201.245 -63.5604 201.561 -64.6027 201.484C-66.6194 200.488 -68.1851 201.641 -69.7808 202.601C-70.3256 202.923 -70.8346 203.477 -71.5824 202.998C-72.1613 200.789 -72.9708 201.706 -73.5785 201.364C-74.6834 201.138 -75.818 201.234 -76.9378 201.169C-78.499 199.785 -77.5816 200.08 -77.0903 199.925C-76.4502 199.707 -75.6908 199.748 -75.8075 198.736C-75.2006 197.532 -74.7571 197.068 -74.218 197.222C-72.9163 197.695 -71.7046 197.072 -70.43 197.113C-68.5627 197.142 -66.9372 196.375 -65.5829 195.136C-62.1285 194.92 -60.3742 195.243 -58.6146 194.575C-57.903 194.307 -57.0989 194.381 -56.3455 194.383C-55.1215 194.353 -54.0496 194.108 -53.252 193.113C-52.3383 192.1 -53.0291 192.246 -53.6935 191.794C-57.7166 192.177 -58.8779 192.357 -60.0124 192.453C-61.529 191.101 -60.7667 190.904 -59.9418 190.856C-58.5303 190.757 -57.0083 191.117 -55.8355 189.985C-55.0852 189.71 -54.3378 189.674 -53.5843 189.677C-53.5237 186.219 -53.4732 185.775 -54.0035 185.421C-51.7651 183.49 -49.8984 182.489 -47.9751 181.597C-45.932 181.995 -45.0388 181.62 -44.1814 181.012C-43.5265 180.633 -42.7073 181.061 -41.9035 180.62C-42.9222 180.183 -43.5412 180.794 -44.2648 180.985C-46.2331 181.328 -44.7152 179.865 -45.1652 179.261C-46.6894 180.17 -48.5387 180.257 -50.1196 181.056C-51.0783 181.522 -52.1084 182.037 -52.6557 183.113C-53.0306 183.765 -53.7334 183.834 -54.3915 183.935C-55.6958 184.216 -57.0744 184.27 -58.2682 185.01C-59.1583 185.662 -60.1415 184.942 -61.1093 185.092C-61.3043 182.545 -59.5622 182.277 -58.2522 181.519C-57.6687 181.191 -56.972 181.084 -56.3318 180.866C-57.5387 179.467 -58.7207 179.769 -59.8493 179.903C-61.1328 180.062 -62.2287 180.152 -62.9144 178.791C-67.3502 175.988 -67.8357 175.667 -67.7824 174.985C-65.4723 173.518 -64.5788 173.658 -63.5273 174.05C-62.1542 174.472 -60.6326 174.317 -59.2211 174.218C-57.6488 174.134 -56.0642 174.642 -54.5365 174.525C-52.3835 174.351 -50.0335 174.94 -48.1016 173.333C-45.6056 174.097 -44.7631 173.65 -44.4885 174.916C-44.384 175.336 -42.7698 175.522 -41.796 175.412C-37.9537 176.681 -36.8789 176.198 -35.9533 175.263C-35.0933 173.901 -33.2708 173.897 -32.4436 172.58C-31.0329 170.936 -29.9074 170.524 -28.8027 170.235C-26.0309 168.935 -25.593 168.947 -25.5873 168.47C-26.5224 168.575 -27.6007 168.266 -28.002 169.517C-28.0925 167.39 -27.2466 167.735 -26.669 167.369C-25.5883 166.925 -24.2302 166.992 -23.7753 165.574C-22.3848 165.082 -21.6104 165.478 -20.857 165.481C-22.0066 165.222 -22.9356 165.366 -22.9182 164.451C-22.9276 163.62 -21.9983 163.992 -21.5756 163.65C-23.9594 161.045 -24.6201 161.9 -25.1555 163.053C-26.5935 163.75 -26.9331 163.605 -27.1537 163.203C-31.6117 163.336 -32.5376 163.757 -32.7018 162.95C-32.5564 162.095 -33.1726 162.467 -33.991 163.585C-35.3604 164.47 -36.8371 165.173 -38.4331 165.618C-39.6897 165.693 -40.223 165.577 -40.6337 165.997C-44.5279 167.986 -45.0818 167.992 -44.716 167.024C-47.3611 165.807 -48.2959 166.427 -49.162 167.235C-50.0937 168.132 -51.1298 168.609 -52.5325 168.508C-54.5725 168.387 -56.3617 169.377 -58.0349 170.349C-59.2346 171.049 -60.39 171.267 -61.6914 171.31C-65.7259 172.646 -68.7456 172.597 -71.6757 173.129C-72.6853 173.007 -73.278 173.019 -73.8231 172.826C-76.446 174.063 -76.4071 174.572 -76.1358 175.046C-78.2761 176.843 -78.4935 176.718 -78.3842 175.116C-77.8672 172.816 -78.5493 172.763 -78.7252 172.394C-81.4719 170.519 -81.9214 170.945 -82.3415 170.534C-82.5919 169.939 -82.9318 169.278 -83.727 169.004C-85.9871 169.512 -85.8527 170.125 -86.4513 170.099C-87.6493 168.5 -88.1293 167.702 -88.6479 166.911C-90.3728 165.75 -91.3497 165.584 -92.2522 165.129C-93.5155 164.135 -93.9597 163.054 -94.5142 162.03C-96.9894 161.144 -97.2786 160.554 -97.7374 160.149C-98.9827 159.272 -99.2448 159.114 -99.3701 158.816C-100.464 157.637 -100.809 157.453 -101.062 157.096C-101.493 154.824 -100.986 154.508 -100.385 154.296C-100.701 153.275 -101.749 153.674 -102.369 153.255C-102.695 151.403 -102.966 150.929 -103.166 150.405C-103.014 149.074 -102.735 148.833 -102.905 148.502C-96.8869 146.661 -95.4134 145.681 -93.7041 145.457C-94.4518 144.978 -95.5861 145.589 -96.5872 144.752C-98.9033 146.18 -100.681 146.217 -102.471 146.176C-103.293 145.986 -104.049 146.737 -104.895 146.392C-108.16 144.24 -108.098 143.874 -107.818 143.633C-107.132 140.118 -107.18 139.809 -107.305 139.511C-105.299 137.101 -104.805 136.707 -104.266 136.347C-101.589 135.458 -100.636 135.469 -99.6534 135.674C-98.0987 135.989 -97.9351 135.765 -98.4958 134.187C-99.7328 132.08 -100.078 131.895 -100.159 131.63C-101.315 130.303 -101.723 130.484 -102.131 130.666C-105.664 128.319 -105.977 128.605 -106.25 128.885C-106.999 131.735 -106.675 132.042 -106.937 132.399C-107.945 133.823 -109.36 133.645 -110.778 133.19C-111.585 132.324 -111.937 131.586 -112.509 130.961C-116.737 126.937 -115.859 125.176 -115.381 123.398C-113.706 120.127 -113.635 119.561 -113.48 119.022C-111.728 116.255 -111.15 115.888 -110.528 115.554C-108.691 114.359 -107.967 114.683 -107.545 114.341C-106.125 113.527 -105.702 113.699 -105.467 113.425C-104.788 112.171 -104.926 111.281 -105.379 110.4C-107.62 108.209 -108.247 109.535 -109.114 109.827C-110.793 105.37 -110.516 104.851 -110.138 104.476C-108.617 102.775 -108.117 102.42 -107.858 101.786C-106.93 99.5813 -106.159 99.1848 -105.701 98.5592C-104.395 95.4643 -102.96 95.5202 -101.885 95.0371C-98.5713 93.1384 -98.131 92.3966 -97.3539 92.0388C-94.7642 89.8158 -95.1337 89.4766 -95.5478 89.1045C-98.5317 89.2878 -98.9843 89.4369 -99.3981 89.5801C-102.578 91.577 -103.117 91.4225 -103.456 91.792C-105.09 92.7577 -105.624 92.6419 -106.047 91.9542C-105.75 89.7681 -105.959 89.4436 -105.724 89.1695C-105.876 87.9248 -105.433 86.9448 -104.299 86.3337C-102.525 83.9592 -103.035 83.483 -104.068 83.2066C-106.422 80.7957 -106.244 79.8962 -106.56 78.8749C-106.757 78.1127 -107.076 77.3296 -106.892 76.4689C-104.904 74.4577 -104.362 73.8588 -103.606 73.6231C-102.227 73.0536 -102.09 73.4287 -101.855 73.6698C-98.7423 74.0613 -96.5569 73.3275 -94.5206 72.1412C-93.7942 71.7119 -92.9724 71.3869 -92.5549 72.5511C-88.1025 72.8941 -87.7601 72.8016 -87.4296 72.6317C-82.9032 72.1707 -82.4835 72.0662 -82.1439 72.212C-81.0358 72.7147 -79.9044 72.3418 -78.7786 72.4454C-77.5109 76.2924 -75.7182 76.0949 -73.9853 75.5102C-73.0027 75.2 -71.9811 75.399 -71.0461 75.2942C-68.6161 75.1172 -66.2998 74.2047 -63.8755 74.5042C-61.4871 74.5714 -60.8618 74.5145 -60.2663 74.264C-52.8628 74.4686 -51.6272 74.0003 -50.4092 73.9312C-48.2562 73.7573 -46.0582 74.1314 -43.8696 73.6746C-41.6451 73.45 -40.6386 73.2946 -39.6887 73.0291C-38.4229 73.2696 -38.0447 73.4094 -37.6161 73.1054C-30.1958 71.3652 -28.1588 71.2093 -26.1846 70.9045C-25.327 70.8117 -24.4367 70.6742 -23.7581 69.9353C-26.8373 70.0144 -28.5376 70.0391 -30.1313 69.2151C-29.9266 67.717 -29.4533 67.4458 -28.9469 67.645C-25.6895 66.6665 -25.0641 66.6096 -24.4627 66.3978C-23.7243 66.046 -22.9889 65.9325 -22.1788 66.0452C-18.3321 64.2623 -18.097 63.9882 -17.9512 63.6486C-17.2758 62.6327 -16.1737 63.0967 -15.2745 62.7597C-11.9991 61.8973 -11.1475 61.7658 -10.2659 61.8279C-8.00304 61.0822 -7.69339 61.0344 -7.32421 60.8585C-6.48737 60.8878 -5.67431 60.7623 -4.84658 60.4759C-1.3452 59.0238 -1.41104 58.598 -1.72101 58.1306C-4.28982 54.8412 -4.56101 54.3678 -4.7221 53.8378C-1.57768 53.1542 -1.42852 53.6068 -1.14844 53.8806C-0.873787 55.1461 -0.453669 55.5569 0.409653 54.9876C5.21038 55.2769 5.17425 54.5294 5.19475 53.8921C7.79207 54.799 7.96197 55.1295 7.65541 55.4543C9.79758 57.2637 10.8905 57.4121 11.7894 56.5599C13.0402 56.4461 13.6386 55.9573 14.2369 55.4686C20.8331 55.3221 20.9668 54.9051 21.4584 55.2652C22.5275 55.2587 23.6234 55.1688 24.734 54.918C32.1432 54.646 32.5004 54.3927 32.7745 54.6278C35.437 54.9302 35.9671 54.7691 36.503 54.6467C37.4979 54.9291 38.4657 54.7796 39.4335 54.6302C42.2924 54.6644 43.7007 54.2884 45.0798 54.7493C49.5708 55.0864 50.2289 54.9848 50.8304 54.773C52.0811 54.6592 52.4681 54.5994 52.8433 54.4623C55.9012 53.4749 56.0798 53.0906 56.6009 53.1291C58.4403 51.1804 58.9853 51.3737 59.4231 51.3854C61.0581 51.45 62.6632 51.3211 64.2922 51.3471C71.3886 50.8459 71.6416 50.688 71.9664 50.9945C74.5549 52.101 75.0849 51.9398 75.359 52.175C77.3364 52.1471 79.069 51.0473 81.0791 50.9748C81.8505 51.0935 82.58 50.9412 83.3362 50.7055C86.9489 51.2575 89.304 50.339 91.7309 49.8851C93.6789 50.694 94.8762 50.747 96.103 50.4783C101.049 50.428 102.559 50.1949 104.045 49.807C109.565 48.0828 109.842 48.0796 110.137 48.1926C116.224 48.0852 119.443 47.6278 122.582 46.9054C123.329 46.8693 124.032 46.8004 124.749 46.5707C126.89 46.3194 127.692 46.6317 128.481 46.3513C134.231 45.8599 138.293 45.4706 142.226 44.5066C145.669 43.6977 149.194 43.4307 152.643 42.6606C154.057 42.8385 155.346 42.2035 156.758 42.1044C161.773 41.7265 166.554 39.8389 171.575 39.4997C177.736 38.5881 183.04 37.7693 188.313 36.7569Z" fill="white"/>
</svg>
