<svg width="437" height="108" viewBox="0 0 437 108" fill="none" xmlns="http://www.w3.org/2000/svg">
<path d="M250.674 23.5368C244.04 23.4952 243.2 23.1691 242.453 23.6106C238.953 23.7283 237.181 23.1284 235.461 23.6861C232.978 23.9577 232.243 23.6467 231.571 24.1282C230.075 23.7587 228.708 24.3818 227.25 24.2374C226.556 24.1739 225.915 24.2205 225.288 24.3572C224.409 24.626 223.868 24.8702 223.239 24.5744C222.23 24.6705 221.63 24.7597 220.929 24.6512C219.883 24.5223 218.895 24.7535 217.901 24.9396C215.793 25.0017 215.075 25.4182 214.179 25.3695C213.196 25.4182 212.176 25.4468 211.122 25.4779C208.972 25.7024 208.353 25.8841 207.678 25.7282C205.645 25.8304 203.619 26.1826 201.572 25.9898C200.205 26.408 199.111 26.1915 197.996 26.2725C195.629 26.4217 193.262 26.776 190.899 26.7428C188.81 26.7124 186.712 27.0471 184.639 26.6968C183.143 26.7372 182.2 27.2384 181.116 27.0894C178.892 27.2739 178.089 27.3778 177.264 27.3467C174.589 27.4955 174.27 27.4276 174.022 27.5823C173.302 27.7713 172.795 27.8081 172.237 27.7348C171.501 27.8338 170.796 27.9079 170.038 27.8718C165.123 27.4777 164.885 27.9048 164.39 27.8042C161.295 26.845 159.186 27.1121 157.248 28.0044C156.064 28.9103 155.393 28.7769 154.7 28.5084C153.706 28.6946 153.334 28.7216 152.978 28.6336C149.753 28.5492 149.43 28.6638 149.142 28.5709C146.715 28.5651 145.437 28.2708 144.153 28.5691C142.708 28.9246 141.635 29.0481 140.594 28.5317C139.822 28.4057 139.532 28.9278 139.021 29.1471C137.303 29.0897 136.506 28.6012 135.537 28.9448C129.852 31.157 129.521 31.4315 128.94 31.2233C128.24 32.1623 128.261 32.5023 127.617 32.3214C121.975 32.5037 121.57 32.5332 121.198 32.7652C118.137 33.056 117.563 33.0977 116.982 33.0944C115.244 33.3345 114.704 33.3738 114.145 33.3005C109.501 33.7292 109.231 33.7488 108.912 33.6809C105.655 33.189 104.923 33.3105 104.209 33.5445C99.6865 33.4634 98.2795 33.6339 97.077 33.1748C92.6357 32.1313 92.5345 32.1387 91.6995 32.8825C90.4668 33.7008 90.4619 34.0883 90.1611 34.3379C89.4772 34.7519 88.9222 34.7012 88.371 34.6729C86.2003 35.6049 85.255 35.6736 84.2912 35.6298C82.3539 35.0647 82.0991 34.9694 81.8217 34.944C80.8051 34.9951 80.2796 35.1244 79.8149 34.9988C79.0206 34.7377 78.6148 34.9721 78.2796 35.4291C74.6383 34.0542 74.192 34.0411 74.2165 34.6087C73.9279 35.7682 73.7965 35.8005 72.7702 35.3741C67.0165 34.2439 66.8023 34.3961 66.4683 34.4431C64.7666 35.3183 64.6155 35.648 65.0796 35.9787C63.0506 38.4033 62.6301 38.5477 62.4607 38.765C60.6785 40.1925 61.4679 40.841 60.8479 41.2277C59.5445 43.0758 58.7054 42.7497 58.3929 43.1368C57.5236 44.088 56.6415 44.3343 56.6881 45.0369C56.7776 46.4194 57.0962 46.4874 57.4191 46.3728C58.0348 46.1687 58.7248 46.2096 59.3031 45.9854C61.0987 45.0579 61.774 45.0088 62.4713 45.0947C64.0618 46.2544 64.6345 46.6226 65.5817 45.9389C67.185 47.8035 66.7461 47.8354 66.4268 47.9725C65.0849 48.9581 65.0768 49.1181 64.9 49.2904C62.986 49.7028 62.5913 50.0047 62.1591 50.2866C61.6311 51.2358 61.9571 51.3488 61.7502 51.546C60.0546 52.8761 59.7206 52.9232 59.5064 53.0754C56.6586 54.6714 56.3547 54.6935 56.0434 54.6706C53.5364 55.2172 50.922 55.3161 48.3112 55.4375C47.4671 55.4989 47.4167 56.0263 46.7721 55.8454C45.6924 55.719 44.5414 55.5749 43.4161 55.5884C42.1068 55.7291 41.6715 55.7835 41.248 55.7004C40.3297 55.5167 40.0436 55.8563 39.639 55.6807C35.0657 56.127 34.4917 56.1687 33.8993 56.0979C33.0964 56.2018 32.3272 56.3033 31.4912 56.2046C29.7729 56.3523 29.2665 56.3891 28.7717 56.2884C27.6337 55.5969 26.9732 55.736 26.339 55.8276C23.1444 56.7657 22.8405 56.7878 22.5256 56.7424C21.3146 55.3958 21.4208 55.001 20.8542 55.0877C19.3096 56.088 18.5668 56.142 17.9474 56.3237C15.1408 56.7098 14.5288 56.9365 13.91 56.9132C13.0801 56.0171 12.7928 55.5142 12.0113 55.9581C6.39074 56.6854 6.04945 56.6875 5.73085 56.6195C4.53686 57.0479 4.26676 57.0675 3.9893 57.0422C2.89784 57.0532 2.80149 56.6731 2.70882 56.3154C2.14966 55.1947 1.48305 54.8788 0.458496 55.0899C1.44858 56.3387 2.11091 56.8371 2.01878 57.5269C0.715418 59.3751 0.769361 60.1226 0.714678 60.8325C0.378848 61.4946 0.385566 61.7446 0.767374 61.9901C0.400662 65.3869 0.281522 66.3292 1.22069 67.058C4.73202 66.8028 5.57608 66.7414 6.40848 66.8176C7.95169 67.4796 7.93199 67.7771 8.21251 68.03C7.78087 69.3593 6.95956 69.3507 6.8343 69.838C8.01411 70.3671 8.71644 70.0656 9.68694 70.3594C11.938 70.1274 12.0828 70.5951 11.8034 71.1847C11.5234 71.9793 12.2098 71.9977 12.2122 72.4302C14.3117 71.4806 14.1895 70.943 14.1386 70.4229C16.0864 70.0081 16.3351 69.6485 16.7372 69.3915C17.7732 71.5478 18.254 71.3535 18.4449 71.4762C20.0532 71.7009 20.5522 71.6191 20.842 71.302C25.2699 69.3406 26.7254 69.2576 28.3344 69.2773C27.4423 70.2985 25.5308 71.1434 23.4546 71.818C21.3742 72.6752 20.8026 73.1494 20.5269 73.7615C19.9554 74.2357 20.2954 74.6436 20.463 75.0413C19.3758 76.1223 18.6637 75.9464 18.7821 76.4615C22.4518 77.174 22.7182 77.1318 23.0221 77.1097C23.8324 77.0508 24.5622 77.5443 24.0846 77.9662C23.6408 78.3855 23.5192 78.8953 22.963 79.2546C22.9395 80.782 22.5441 81.2889 23.2943 81.28C24.1341 80.1486 24.3527 79.8139 24.9009 79.6147C25.6309 78.8557 25.9348 78.8336 26.8629 79.4949C29.333 79.9757 29.2219 79.5056 29.4141 79.2184C30.5841 79.27 31.109 79.3457 31.4269 79.6186C32.2157 80.4721 32.6252 80.2602 33.0119 80.1182C32.3354 80.5773 33.0382 81.3232 32.3586 81.5548C30.8877 83.0052 30.4218 83.2896 29.9485 83.5289C26.5882 83.4543 25.8092 83.0783 25.0289 83.1122C24.1854 84.221 23.1972 83.6097 22.7539 83.8241C21.2481 84.4345 20.4826 84.5585 19.9074 85.0102C19.7588 85.7725 20.1786 85.833 20.4745 85.9709C21.5991 86.1624 22.5788 85.8863 23.6034 85.6752C23.9773 84.8282 24.9104 85.102 25.5519 85.0554C26.1596 85.0112 26.7078 84.812 27.3339 84.8803C28.3559 85.4892 29.1399 85.4777 29.9576 85.4638C31.2498 84.8006 31.8415 85.0764 32.4228 85.0797C32.3895 87.3821 33.1016 87.558 33.799 87.644C34.8112 87.7754 35.8726 87.7893 36.9156 87.6907C39.4815 87.5042 42.0364 87.2502 44.6325 87.0387C46.9959 86.867 49.4533 86.6428 51.8829 86.8761C52.7681 86.8573 53.6042 86.956 54.471 86.8247C57.064 86.3857 58.2684 86.2299 59.2002 86.9136C61.9343 86.9198 63.3376 86.7267 64.8035 86.9162C66.4395 86.6835 67.0098 86.6192 67.6052 86.9175C72.1657 85.7663 73.4511 86.1055 74.7335 86.2172C75.5972 85.8584 76.1061 86.2541 76.5236 85.8822C77.9072 85.9866 78.4695 86.0823 79.0435 86.0406C76.3399 87.0569 75.9255 87.6563 75.2466 87.6829C74.5302 87.6894 73.9777 88.0712 73.3098 88.1652C73.1575 88.905 72.1863 88.8162 71.7879 89.0956C70.8437 90.0068 70.2354 90.256 69.616 90.4376C71.5122 90.9602 73.0787 91.3473 74.7294 91.2046C75.8412 90.6911 76.1224 90.739 76.5564 91.0945C76.9786 92.84 76.0602 92.6563 75.8834 92.8286C76.8243 95.4472 76.8218 96.2672 77.8998 95.7562C75.6284 96.4906 75.6008 96.948 75.8395 97.3633C76.8646 98.1997 76.6651 98.4419 75.2956 98.6325C75.7787 98.8707 76.1641 99.1387 75.964 99.5859C75.8209 101.008 75.1805 101.897 74.1315 101.541C73.5158 101.745 72.9381 101.764 72.3199 101.536C71.6803 102.22 71.2223 102.344 70.6557 102.431C70.2517 103.303 69.7115 103.342 68.9613 103.351C70.9324 103.914 71.0264 103.861 71.1793 102.917C71.8588 102.685 72.1418 103.371 72.7612 103.189C73.9803 103.123 74.5844 103.056 75.1774 102.922C76.008 102.361 76.9331 102.795 78.0245 102.784C76.1117 102.786 75.3235 102.98 74.5132 103.039C73.9742 103.921 74.9692 103.529 75.8501 103.693C77.3123 103.86 77.9035 104.341 78.7212 104.327C78.322 106.064 79.0672 106.442 80.05 106.394C81.0365 106.368 81.9665 106.414 82.8885 106.62C84.6031 106.45 85.9536 106.352 87.3004 106.231C87.9382 106.162 88.9032 105.796 89.2383 106.591C88.9142 107.116 88.4078 107.153 87.9462 107.254C87.2015 107.923 87.342 108.574 87.1339 109.181C86.9104 109.903 85.566 110.456 84.5353 110.212C81.3242 110.423 80.2173 110.549 79.0399 110.452C78.1842 110.651 77.6446 110.485 77.1456 110.567C75.0393 111.267 74.2861 111.048 73.6311 110.595C73.1259 110.222 72.5416 109.991 71.7915 110C70.6626 109.991 70.2488 110.385 70.7005 111.058C71.1486 111.709 70.9558 112.201 70.1369 112.625C69.1602 113.129 68.232 113.72 66.9097 113.156C65.6138 113.796 64.5623 114.26 64.5899 115.055C64.6137 115.827 64.1073 115.864 63.2939 115.695C61.9146 115.409 60.6727 115.544 59.5831 116.193C58.9114 117.517 57.6174 117.543 56.5523 117.506C55.2172 117.489 54.1539 118.09 52.815 118.051C52.7534 121.016 53.4809 121.077 54.1862 121.003C54.8615 120.954 55.5705 120.902 56.2832 120.873C54.2796 121.155 52.239 121.213 50.2427 121.54C48.708 121.765 47.3476 122.639 47.3218 123.733C47.3088 124.281 47.0295 124.87 47.5942 125.399C46.8188 127.55 46.4737 128.782 48.2539 129.222C49.8758 128.694 51.047 129.588 52.3116 129.382C52.8745 129.273 53.3569 129.716 53.9763 129.535C54.1757 130.545 54.8577 130.746 55.5557 130.627C57.5557 130.322 58.7005 131.264 60.1013 131.89C60.5506 132.131 61.1172 132.044 61.8256 132.198C61.0411 132.414 60.4107 132.528 60.0307 132.92C60.6057 134.974 61.1379 135.094 61.7868 135.093C64.071 135.063 66.3521 134.806 68.327 134.139C69.7536 133.671 70.691 133.762 71.9874 134.169C73.0629 134.478 74.3379 134.545 75.4423 133.986C76.7799 134.436 76.5343 135.023 77.2605 135.494C77.9492 135.945 78.7564 135.658 79.4734 135.447C81.4654 135.302 81.905 135.065 81.3894 134.419C82.8222 134.406 83.6436 133.162 85.3035 133.702C83.9656 137.01 82.8913 137.544 83.3996 138.144C85.4444 137.905 86.4984 137.874 87.5818 138.023C89.1037 137.092 89.7451 137.046 90.5063 137.104C91.1963 137.145 91.9876 137.179 92.1356 136.621C92.3136 136.039 91.5494 135.753 90.954 135.455C89.1737 136.267 88.4874 136.249 87.9742 136.036C88.466 134.656 89.0443 134.432 89.9031 134.461C91.2156 134.548 92.4875 134.387 93.752 134.181C94.3487 134.07 95.0019 133.885 95.7103 134.039C94.7863 135.7 95.6009 135.459 96.4407 135.58C95.9631 136.002 95.4149 136.201 95.6911 136.636C96.0084 137.114 96.758 137.31 97.351 137.176C98.89 136.768 100.235 137.262 101.645 137.319C100.727 138.183 100.212 138.585 99.2201 137.951C98.61 137.563 98.1029 137.804 98.0372 138.447C96.8573 139.17 96.29 139.462 95.8124 139.884C97.1088 141.543 99.1302 141.578 101.211 141.769C101.766 141.819 102.344 141.595 102.907 141.486C105.056 140.419 104.552 140.888 105.29 141.222C105.919 141.517 106.662 141.463 107.3 141.189C108.123 140.788 109.084 140.604 109.992 140.311C110.968 140.012 111.985 139.756 113.125 140.037C115.587 140.678 116.783 140.887 117.937 141.054C120.242 140.317 122.47 140.565 122.932 141.306C123.302 141.894 123.624 141.984 124.379 141.588C125.014 141.291 126.121 141.165 125.077 140.421C125.993 139.967 126.574 139.971 127.14 140.089C128.198 140.285 129.057 140.109 129.64 139.497C130.197 138.933 130.748 138.961 131.369 139.417C134.295 139.341 135.747 139.031 137.242 139.605C137.472 138.086 137.952 138.096 138.313 137.797C138.937 137.228 139.8 137.279 140.677 137.42C142.532 134.143 143.674 133.604 145.068 133.981C145.75 134.182 146.219 134.33 146.704 133.748C147.013 133.339 147.883 133.435 148.29 133.838C148.9 134.431 149.14 134.437 149.686 133.805C150.175 133.246 150.768 133.111 151.653 133.298C152.395 133.449 153.111 133.442 153.821 133.185C154.726 132.869 154.969 132.897 156.627 133.004C155.934 133.988 156.391 134.069 156.755 133.997C158.635 133.587 160.815 133.542 162.041 132.269C163.831 131.934 165.093 131.501 166.431 131.745C165.197 131.721 164.198 132.09 163.173 132.506C164.457 133.255 165.171 133.021 165.992 133.03C167.121 133.039 168.231 132.935 169.36 132.944C170.628 132.966 170.948 132.624 170.414 131.866C172.291 131.228 173.109 131.214 173.174 130.572C173.203 129.91 172.411 129.876 171.616 129.82C172.547 129.661 173.214 129.772 173.64 130.288C175.662 130.118 176.885 131.327 178.356 130.924C179.711 131.896 180.213 132.041 180.268 132.584C180.389 133.327 180.992 133.67 182.14 133.587C181.168 133.703 180.32 133.947 179.726 134.491C179.516 133.208 179.093 132.92 178.275 132.934C177.353 132.933 176.445 133.021 175.533 133.088C174.794 133.164 174.437 133.486 174.724 133.989C176.787 134.067 176.997 133.892 177.421 133.975C176.423 135.186 176.287 135.401 176.47 135.684C178.274 135.849 179.204 135.895 180.089 135.876C180.768 135.85 181.241 135.61 181.303 135.15C181.357 134.645 181.729 134.413 182.475 134.382C183.732 134.336 184.951 134.27 185.472 133.276C185.533 134.069 185.758 134.189 186.625 133.853C187.136 133.633 187.95 133.597 188.106 132.88C188.669 133.818 189.603 133.887 190.86 133.636C190.413 134.033 189.448 134.194 190.088 134.762C190.567 135.183 192.224 135.29 192.987 134.939C193.621 134.642 193.618 134.415 192.904 133.601C193.778 133.515 194.63 133.499 195.224 132.954C198.842 133.352 199.72 133.288 200.625 132.972C201.203 132.747 201.909 132.673 202.576 132.784C203.656 132.911 204.691 132.767 205.6 132.473C206.835 132.088 208.039 132.137 209.273 132.161C210.78 132.188 212.277 132.148 213.673 131.705C214.454 131.466 215.317 131.517 216.157 131.433C217.065 131.344 218.01 131.275 218.926 131.027C219.808 130.78 220.794 131.164 221.769 131.071C222.343 131.029 222.891 131.035 223.349 130.705C228.355 129.977 230.851 130.615 233.159 130.106C235.468 130.644 237.352 130.257 239.239 129.892C241.003 130.857 241.61 131.018 242.243 131.131C244.576 131.189 245.019 130.975 245.081 130.515C245.158 129.735 246.205 129.454 246.841 128.952C249.238 129.826 250.976 129.38 252.695 129.233C254.867 128.938 255.456 128.986 255.75 129.534C257.485 129.067 258.527 129.173 259.562 129.235C258.23 126.94 255.433 126.552 252.843 127.218C252.186 127.38 251.507 127.406 250.765 127.255C249.603 127.044 248.53 127.372 247.52 127.673C244.081 127.536 241.89 127.718 239.776 128.373C238.932 128.639 238.091 128.723 237.12 128.634C236.217 128.54 235.226 128.544 234.228 128.708C237.403 128.067 239.479 127.392 241.767 127.385C244.17 127.666 245.412 127.53 246.346 126.552C246.759 126.157 247.521 126.011 248.244 126.254C248.994 126.45 249.684 126.491 250.449 126.367C251.046 126.256 251.619 126.419 252.174 126.47C252.875 126.578 253.595 126.594 254.009 126.2C254.573 125.68 255.256 125.676 255.998 125.827C257.021 126.026 257.937 125.982 258.823 125.554C259.555 125.227 260.463 125.138 261.378 125.3C262.57 125.486 263.734 125.083 264.93 125.087C264.78 123.959 264.166 123.754 263.315 123.565C264.312 123.606 265.142 123.455 265.937 123.511C266.905 125.672 266.574 125.947 265.663 126.013C265.018 126.037 264.388 125.946 263.791 126.058C265.164 127.142 266.359 127.556 267.63 127.806C271.127 127.255 270.259 126.749 269.148 126.853C271.211 126.726 273.117 126.678 274.956 126.226C276.529 125.815 278.31 126.05 280.006 125.768C281.931 125.423 283.985 125.66 285.937 125.268C289.012 125.477 290.753 125.26 292.395 125.482C294.302 124.82 295.772 125.032 297.115 124.888C297.918 124.784 298.769 124.768 299.509 124.487C302.613 125.081 304.402 124.951 306.032 124.058C308.2 124.151 309.108 124.062 310.083 123.969C311.494 123.82 312.89 123.582 314.333 123.842C317.71 123.596 318.584 123.51 319.507 123.306C320.235 123.162 320.944 123.111 321.554 123.499C318.868 123.581 317.157 123.978 315.431 124.081C314.824 124.125 314.302 124.277 313.78 124.429C312.44 124.799 311.059 125.127 309.573 125.235C307.713 125.348 306.637 126.291 306.768 127.511C306.823 128.054 306.881 128.619 307.071 129.152C309.063 127.55 311.219 127.985 312.787 127.757C314.863 128.54 315.014 129.258 315.26 129.923C315.442 130.411 315.861 130.676 316.671 130.822C315.887 130.834 315.351 130.69 314.887 130.36C312.92 129.82 312.47 129.784 312.472 129.169C312.48 128.804 311.72 128.541 311.086 128.427C310.362 129.641 309.702 129.78 308.884 129.794C307.365 129.905 306.356 130.001 306.649 130.959C305.186 129.744 304.309 129.603 303.27 129.724C302.167 129.873 301.06 129.999 299.938 130.034C298.955 130.083 297.841 130.164 297.79 131.102C296.146 131.494 295.125 131.728 294.008 131.581C292.508 131.394 291.133 131.972 289.679 131.85C287.601 131.683 285.585 132.307 283.531 131.865C280.563 132.308 278.921 132.291 277.232 132.413C275.622 131.756 274.803 131.975 274.073 132.734C271.055 132.453 268.819 132.57 266.679 132.224C265.138 131.995 263.27 132.062 261.619 132.41C259.573 132.854 257.492 132.664 255.429 132.791C254.345 132.847 253.436 133.141 252.42 133.192C250.293 133.347 248.191 133.864 245.99 133.568C243.404 134.257 242.287 134.111 241.181 134.032C240.562 134.009 239.939 133.963 239.35 134.119C238.006 134.468 236.592 134.593 235.163 134.424C234.436 134.363 233.873 134.472 233.351 134.829C231.565 136.029 231.258 136.028 229.288 135.056C228.655 134.737 228.022 134.624 227.319 134.925C225.059 134.68 226.079 134.446 227.216 134.5C227.122 133.3 226.188 133.231 225.288 133.365C224.083 133.521 222.92 133.72 221.764 133.963C220.676 134.201 220.543 134.644 221.445 135.147C219.987 136.255 219.17 136.064 218.345 135.828C220.392 134.974 220.423 134.539 220.106 134.061C219.758 133.608 219.229 133.714 218.606 133.874C217.491 134.16 216.291 134.338 215.057 134.314C213.823 134.29 212.555 134.473 211.336 134.539C210.762 134.58 210.176 134.76 209.975 134.159C208.295 134.122 207.632 134.034 206.927 133.903C206.046 133.739 205.195 133.755 204.331 133.909C205.521 134.916 206.35 134.764 207.231 134.928C206.245 134.954 205.314 135.113 204.342 135.229C203.708 135.321 203.112 135.432 202.649 135.739C201.205 135.89 200.625 135.477 200.773 134.919C201.087 133.917 200.78 133.712 200.033 133.948C198.884 133.189 198.175 133.241 197.495 133.472C196.778 133.684 196.114 133.801 195.376 133.467C195.46 135.647 195.815 135.94 196.482 136.051C195.46 136.695 194.371 137.138 192.961 137.081C193.261 138.494 193.865 138.427 194.45 138.248C195.261 137.984 195.887 138.053 196.291 138.638C197.092 138.944 197.043 139.267 197.124 139.557C197.295 140.182 197.965 140.52 198.842 140.661C199.547 140.792 200.043 140.483 199.801 140.045C199.33 139.26 200.245 139.421 200.669 139.504C201.512 139.648 202.348 139.951 203.234 139.522C205.908 139.579 205.444 139.248 205.265 138.783C207.161 139.51 209.049 139.145 210.875 139.035C211.551 138.986 212.207 139.03 212.871 139.118C213.74 139.214 214.629 139.218 215.295 138.691C219.034 138.579 221.833 138.353 224.591 137.879C225.822 137.676 226.999 137.977 228.203 137.822C231.749 137.359 235.409 137.389 238.962 136.971C240.63 136.304 241.346 136.297 242.096 136.493C241.202 136.877 240.676 137.006 240.806 137.384C243.732 137.513 244.41 137.486 245.1 137.732C247.232 136.985 249.35 137.605 250.751 136.775C252.372 136.657 252.889 136.893 253.482 136.553C254.042 136.217 253.672 135.834 253.441 135.463C254.217 136.659 254.715 136.783 256.476 136.268C256.788 137.338 257.079 137.658 258.047 137.725C258.981 137.793 259.736 137.397 260.569 137.268C259.777 137.44 259.033 137.699 258.189 137.76C261.149 138.934 262.054 138.413 262.869 137.966C263.741 137.447 264.923 137.362 265.839 136.908C264.504 135.844 263.681 136.245 262.747 136.381C264.8 135.776 266.461 136.111 268.119 136.013C269.283 136.863 270.681 137.057 271.421 137.823C273.522 137.716 274.34 137.497 274.885 137.07C275.667 136.421 276.725 136.413 277.783 136.404C279.594 137.866 280.229 137.365 280.681 136.581C281.295 137.196 281.814 137.66 282.846 137.493C285.044 136.309 286.398 136.438 286.958 137.354C287.618 138.467 288.491 138.586 289.683 137.725C290.969 136.812 291.39 136.463 292.293 136.761C294.39 137.679 294.566 137.917 295.023 137.997C296.45 137.324 296.284 137.769 296.876 138.045C297.467 138.321 298.075 138.277 298.676 138.187C299.539 138.034 300.443 137.922 301.183 137.641C301.889 137.362 302.553 137.04 302.544 136.358C302.531 135.858 303.023 135.526 303.825 135.832C304.552 136.098 305.081 135.991 305.603 135.634C307.542 135.79 308.288 135.758 309.144 135.559C309.501 135.442 308.653 135.481 307.95 135.988C307.642 137.445 309.689 137.637 311.809 137.233C312.47 137.094 312.737 136.847 312.873 136.427C313.074 135.775 313.472 135.7 314.254 136.099C314.7 136.317 315.089 136.607 315.663 136.771C316.412 136.967 317.136 137.005 317.674 136.533C318.272 136.012 319.329 136.003 320.009 135.567C323.425 135.979 325.047 136.498 326.758 136.306C327.41 135.484 328.205 135.54 329.161 135.539C330.32 135.523 331.474 135.895 332.576 136.156C333.217 136.315 333.827 136.498 334.503 136.449C336.391 137.131 337.517 136.913 338.752 136.527C339.401 136.32 339.99 136.369 340.668 136.752C341.304 137.093 342.118 137.262 342.671 137.722C342.944 137.93 344.686 137.508 345.182 137.198C345.802 136.812 345.278 136.531 345.05 136.183C344.595 135.488 343.887 135.129 342.503 135.23C343.907 134.832 344.506 134.947 345.003 135.686C346.204 136.76 346.766 136.855 347.42 136.466C347.878 136.137 348.415 135.87 348.69 135.463C348.996 135.031 349.562 134.944 350.185 134.99C350.855 136.376 351.315 136.889 351.715 137.452C352.036 137.953 353.277 138.022 353.897 137.635C353.967 135.763 354.016 135.645 353.343 134.874C356.022 134.543 356.795 134.464 357.673 134.195C358.747 133.867 358.931 133.945 359.127 134.727C363.574 133.721 364.546 133.605 365.468 134.016C368.25 132.857 368.447 132.388 369.283 132.486C369.845 132.582 370.381 132.725 370.977 132.819C370.565 131.551 370.492 130.895 371.259 130.157C371.703 129.737 371.228 129.339 371.158 128.911C371.753 129.415 371.773 129.96 371.49 130.527C373.519 130.607 373.322 130.029 373.2 129.492C373.296 130.077 373.489 130.632 372.726 131.189C372.237 131.543 372.344 132.195 372.872 132.499C373.437 132.822 374.405 132.683 374.987 132.482C375.862 132.19 374.922 131.871 374.544 131.443C376.426 131.671 378.097 131.231 379.844 131.468C380.684 131.589 381.502 131.37 382.294 131.199C383.014 131.01 383.053 130.62 382.492 130.114C381.684 129.353 381.824 129.161 383.204 129.038C385.091 128.878 386.963 128.833 388.72 128.295C389.501 128.056 390.214 127.822 390.463 127.258C392.055 126.96 392.783 126.611 392.669 125.913C395.053 126.492 395.225 126.502 396.754 125.821C398.276 126.143 399.075 126.017 399.821 125.986C401.206 125.885 402.582 125.739 403.955 125.776C404.814 125.805 405.391 125.991 405.652 126.541C405.905 127.046 406.204 127.412 407.196 126.998C410.189 127.965 411.562 127.797 412.913 127.698C413.791 127.635 414.646 127.641 415.425 128.017C416.159 128.328 416.539 128.141 416.507 127.528C416.508 127.118 416.051 126.833 415.917 126.432C420.585 124.681 421.538 124.453 421.68 123.44C423.817 124.811 424.957 125.092 426.763 124.437C427.472 124.181 428.159 123.994 429.044 124.18C430.067 124.379 430.391 123.855 430.667 123.243C434.398 122.243 435.674 121.9 437.032 122.051C437.827 122.107 438.105 121.723 438.144 121.333C438.217 120.736 438.713 120.426 439.471 120.257C440.199 120.113 440.594 119.811 440.794 119.364C439.665 118.308 439.039 118.034 438.41 117.738C436.025 117.775 434.749 117.913 433.477 118.074C434.67 119.103 434.996 119.216 435.044 119.509C433.543 119.732 433.032 119.951 432.566 120.235C431.996 120.505 431.417 120.729 430.856 120.223C430.385 119.847 429.657 119.991 429.113 119.803C427.17 120.036 425.869 119.811 424.627 119.947C425.425 119.183 426.22 119.034 427.057 118.928C427.59 118.844 428.262 118.772 428.102 118.214C429.769 117.752 431.311 117.571 432.92 117.386C433.757 117.28 434.631 117.193 435.505 117.312C436.412 117.428 437.323 117.362 438.209 117.138C440.191 116.721 440.633 116.917 440.755 117.454C442.068 117.541 443.391 117.695 444.705 117.372C445.845 117.244 446.112 117.201 446.416 117.179C447.71 117.154 448.002 117.064 448.306 117.042C452.129 116.81 452.681 116.633 453.24 116.501C455.438 116.569 456.808 116.174 458.263 116.296C458.824 116.801 459.631 116.515 460.362 116.598C463.765 116.101 464.841 116.409 465.723 116.163C465.7 115.186 465.321 114.963 464.883 114.79C463.7 115.285 462.938 115.432 461.979 115.206C464.478 114.819 464.401 114.346 464.832 114.27C464.284 113.216 463.508 113.273 462.788 113.257C463.373 113.078 464.299 113.306 464.942 112.85C465.427 112.473 466.322 112.727 466.762 112.285C468.786 111.705 469.803 111.449 470.495 112.127C471.449 111.489 472.301 111.267 472.921 110.881C471.96 110.222 471.139 110.008 470.265 109.89C467.746 109.526 465.329 109.998 462.836 109.792C462.452 108.909 464.642 109.137 466.732 108.757C468.094 108.522 469.586 108.664 470.609 107.815C471.064 107.463 471.979 107.625 472.445 107.34C473.222 106.874 473.951 106.73 474.914 106.979C475.632 106.357 476.487 106.363 476.916 106.059C477.821 105.538 478.623 105.639 479.381 105.675C481.878 106.108 481.669 106.715 482.299 107.011C485.478 106.188 486.194 106.181 486.125 105.549C486.093 104.936 485.599 104.631 484.71 104.627C483.784 104.603 482.835 104.649 481.893 104.536C482.477 103.924 483.436 104.15 484.228 103.979C486.141 103.771 487.447 103.813 488.21 103.052C490.804 103.66 492.064 103.637 493.288 103.184C493.094 101.786 491.616 101.939 490.183 101.952C488.834 101.435 488.039 101.584 487.229 101.438C485.797 101.246 484.28 101.584 482.77 101.125C483.537 100.591 484.501 100.634 485.374 100.753C485.967 100.824 486.511 100.807 487.081 100.743C488.648 98.6251 489.41 98.2737 491.281 98.4337C492.387 98.5127 493.344 98.3065 494.249 97.9903C495.975 97.8876 496.527 97.7109 497.101 97.6692C498.3 97.9008 499.285 98.2846 500.36 97.7511C503.195 97.7499 504.824 97.4722 506.454 97.8319C508.424 97.5521 509.073 97.5504 509.721 97.7538C515.172 97.2438 516.046 97.1575 516.893 97.5286C520.696 97.3888 521.423 97.6548 521.935 97.2305C523.949 97.2207 525.175 97.4049 526.416 97.4741C526.971 97.3198 527.441 97.058 527.993 96.8812C530.017 96.0965 529.871 95.8338 528.934 95.7426C524.654 94.6418 521.67 94.3577 518.541 94.4485C515.02 94.4312 513.185 94.4962 511.322 94.3811C509.809 94.7416 509.157 94.5157 508.499 94.0398C508.109 93.7493 507.634 93.5562 507.011 93.5103C502.067 92.7311 501.541 92.8604 501.204 92.6799C500.212 92.0461 498.996 92.3394 497.837 92.3554C497.188 92.357 496.531 92.5186 495.864 92.4077C495.246 92.1794 494.75 92.4887 494.285 92.363C492.977 92.0938 492.068 92.5925 491.12 92.4337C488.581 92.1628 487.486 92.1513 486.402 92.2073C485.082 92.2805 483.735 92.4012 482.498 91.9445C480.341 92.3291 478.928 91.8397 477.391 91.6326C478.314 91.4288 479.106 91.4624 479.968 91.5136C481.704 91.6834 483.407 91.6508 484.678 90.6475C484.543 89.1999 483.887 89.3615 483.245 89.4081C482.506 89.4846 481.872 89.3713 481.427 88.9482C479.174 88.7476 478.86 88.4972 478.91 87.9698C480.154 87.014 480.458 86.9919 480.792 86.9449C482.434 87.1671 482.712 86.9875 483.098 87.0505C485.179 86.1934 486.121 86.1022 487.103 86.2585C488.124 86.0249 488.612 85.8756 489.242 85.9664C489.981 85.8899 490.645 85.5684 491.385 85.4919C493.56 85.4248 493.879 85.4928 494.112 85.2481C490.608 84.2959 489.767 84.7897 488.806 84.9734C484.739 84.1304 483.925 84.1668 483.085 84.0456C481.967 84.3091 480.966 84.2452 480.033 83.7665C482.379 83.0722 482.957 83.053 483.516 83.1263C484.281 83.2073 485.02 83.1308 485.744 82.9643C486.873 82.9733 487.99 83.1198 489.135 82.8089C489.627 82.6821 490.253 82.7504 490.792 82.9162C492.95 82.7366 495.106 82.762 497.189 82.3374C497.822 81.4033 497.308 81.3951 496.978 81.2597C496.225 81.0411 496.314 80.3288 495.591 80.0853C493.066 80.3144 492.153 80.7906 491.147 81.1142C486.267 79.8976 484.973 79.9234 483.86 79.7994C485.681 79.0294 487.763 79.0147 489.911 79.2001C492.879 78.7567 493.88 79.0255 494.545 78.499C495.158 78.0673 495.972 78.0309 496.779 77.9495C497.683 77.8382 498.609 77.862 499.465 77.6632C500.93 76.8052 502.5 77.2148 504.052 77.5119C504.581 77.6101 505.131 77.8434 505.65 77.4641C505.639 76.1441 506.523 76.5353 506.955 76.2534C507.83 75.9621 508.802 75.846 509.725 75.6422C510.722 74.6361 510.02 74.9377 509.574 74.9246C508.989 74.8988 508.362 75.0354 508.232 74.4528C507.454 73.8717 506.978 73.6786 506.561 73.8455C505.577 74.3041 504.423 74.1376 503.364 74.3511C501.807 74.6465 500.274 74.4619 498.861 73.9725C495.919 74.3685 494.523 74.8116 492.899 74.7019C492.243 74.6585 491.586 74.8201 490.956 74.9342C489.924 75.1003 488.971 75.124 488.08 74.6878C487.087 74.259 487.699 74.2373 488.153 73.8854C491.609 73.4977 492.622 73.424 493.594 73.3079C494.56 72.3267 493.878 72.3308 493.176 72.4273C491.972 72.5832 490.778 73.0116 489.541 72.5549C488.851 72.514 488.217 72.6056 487.587 72.7197C486.76 70.7987 486.618 70.5585 486.983 70.2815C484.675 69.5384 482.887 69.2585 481.076 69.0485C479.454 69.5763 478.622 69.5001 477.767 69.289C477.134 69.1756 476.544 69.5373 475.771 69.4113C476.527 69.0148 477.182 69.2632 477.831 69.2616C479.556 69.1589 477.957 68.5693 478.198 68.1646C479.679 68.4441 481.247 68.2163 482.751 68.4258C483.658 68.542 484.636 68.6759 485.336 69.1943C485.796 69.5024 486.401 69.4357 486.974 69.394C488.13 69.3556 489.297 69.1797 490.462 69.4138C491.354 69.645 492.016 69.0959 492.86 69.0345C492.452 67.584 490.933 67.6945 489.666 67.4678C489.103 67.372 488.496 67.4162 487.911 67.3904C488.608 66.4289 489.665 66.4203 490.641 66.3266C491.751 66.2232 492.689 66.1094 492.958 65.2473C496.044 63.0191 496.379 62.7671 496.181 62.3943C493.917 61.9213 493.2 62.1328 492.408 62.5092C491.352 62.9502 490.043 63.091 488.839 63.2468C487.503 63.435 486.29 63.9558 484.984 64.119C483.142 64.344 481.306 65.024 479.327 64.4163C477.408 65.2162 476.602 65.0926 476.656 65.8401C476.663 66.0901 475.353 66.4358 474.513 66.5197C471.579 67.8031 470.571 67.6943 469.586 67.3104C468.56 66.6791 467.033 66.9495 466.044 66.3382C464.494 65.6311 463.459 65.5697 462.469 65.5733C459.855 65.2623 459.491 65.3343 459.38 65.0691C460.186 64.9877 461.02 64.6539 461.637 65.2922C461.235 64.0917 460.604 64.4108 460.038 64.2926C459.034 64.2062 457.911 64.4472 457.212 63.7237C455.937 63.657 455.377 63.9937 454.747 64.1079C455.652 63.7916 456.462 63.7327 456.242 63.2249C456.064 62.7597 455.369 63.1063 454.938 62.9782C456.35 61.1677 457.095 61.5462 457.802 62.1096C459.163 62.2839 459.415 62.1518 459.509 61.8944C463.273 61.3021 464.143 61.3983 464.099 60.9232C463.786 60.4678 464.385 60.5836 465.321 61.0849C466.667 61.3742 468.062 61.5461 469.498 61.5555C470.568 61.4095 470.988 61.2651 471.426 61.4382C475.134 61.9657 475.599 61.8863 475.076 61.4006C477.018 60.3258 477.94 60.5321 478.847 60.8533C479.828 61.2146 480.803 61.326 481.955 61.06C483.637 60.6873 485.357 60.9722 486.977 61.2644C488.139 61.4759 489.155 61.4248 490.255 61.2538C493.934 61.3963 496.452 60.9173 499.025 60.7758C499.843 60.5569 500.343 60.4751 500.756 60.2857C503.23 60.584 503.312 60.8741 503.191 61.1789C505.387 61.8619 505.541 61.7596 505.09 60.8815C504.141 59.6753 504.7 59.5435 504.764 59.3111C506.644 57.8538 507.116 58.0244 507.376 57.7323C507.452 57.3624 507.588 56.9426 508.193 56.6709C510.2 56.6161 510.225 56.9787 510.72 56.8743C511.365 55.8028 511.588 55.2856 511.844 54.766C513.029 53.8601 513.81 53.6212 514.463 53.2321C515.298 52.4883 515.428 51.8185 515.662 51.1638C517.536 50.2989 517.646 49.9265 517.94 49.632C518.786 48.9556 518.97 48.8284 519.008 48.6435C519.659 47.8219 519.907 47.6672 520.039 47.4299C519.89 46.0973 519.395 45.9966 518.844 45.9683C518.879 45.3509 519.847 45.4172 520.272 45.0903C520.129 44.0077 520.25 43.7029 520.299 43.3804C519.874 42.6599 519.585 42.567 519.654 42.3571C514.201 42.2297 512.746 41.9027 511.265 42.0332C511.783 41.6539 512.87 41.8254 513.521 41.2088C515.781 41.6593 517.279 41.4139 518.768 41.1234C519.414 40.8943 520.216 41.2004 520.847 40.8813C523.099 39.1919 522.964 38.9967 522.676 38.9038C521.313 37.0446 521.283 36.8645 521.321 36.6796C519.1 35.6341 518.598 35.4884 518.066 35.3677C515.625 35.2719 514.829 35.4208 514.052 35.6822C512.82 36.0905 512.633 35.9903 512.749 35.0255C513.312 33.6638 513.56 33.5092 513.568 33.3492C514.238 32.4351 514.621 32.4756 515.003 32.5162C517.435 30.677 517.761 30.79 518.053 30.9054C519.32 32.3845 519.117 32.6043 519.417 32.7647C520.581 33.4087 521.726 33.0978 522.811 32.6318C523.293 32.0275 523.422 31.5627 523.761 31.1281C526.399 28.2493 525.269 27.3979 524.469 26.4768C522.332 24.9015 522.146 24.5962 521.896 24.3184C519.807 23.0356 519.241 22.9173 518.644 22.824C516.838 22.4316 516.305 22.7208 515.874 22.5928C514.502 22.3509 514.186 22.5105 513.928 22.3926C513.078 21.794 512.993 21.2764 513.175 20.7167C514.56 19.1586 515.383 19.8047 516.175 19.8383C516.581 17.0989 516.232 16.851 515.832 16.6979C514.176 15.9757 513.678 15.8525 513.319 15.5371C512.047 14.4454 511.312 14.3394 510.788 14.0587C509 12.5263 507.81 12.7722 506.801 12.6633C503.6 12.099 503.065 11.7508 502.334 11.6673C499.666 10.8137 499.899 10.569 500.163 10.2994C502.703 9.95534 503.115 9.97089 503.494 9.98891C506.605 10.6281 507.022 10.4612 507.389 10.6167C508.974 10.9113 509.395 10.7669 509.595 10.3197C508.856 9.14375 508.958 8.93139 508.7 8.81354C508.548 8.09587 507.957 7.61508 506.87 7.44361C504.851 6.38341 505.171 6.04135 505.975 5.73246C507.405 4.03447 507.054 3.55902 507.09 2.9416C507.084 2.48661 507.175 2.00175 506.828 1.5488C504.711 0.723451 504.123 0.470154 503.437 0.451721C502.155 0.33998 502.124 0.569934 501.981 0.739733C499.462 1.42378 497.467 1.34105 495.495 0.983385C494.791 0.852431 494.029 0.793901 493.941 1.50625C490.289 2.36375 489.981 2.36334 489.667 2.31791C485.772 2.73759 485.397 2.74207 485.145 2.87423C484.33 3.3206 483.299 3.2817 482.379 3.50794C482.181 5.84507 480.635 6.00297 479.053 5.93582C478.16 5.9096 477.349 6.17348 476.542 6.25488C474.468 6.51954 472.323 6.35664 470.36 6.88644C468.374 7.28123 467.838 7.34299 467.283 7.29223C461.128 8.51381 459.988 8.43725 458.953 8.58084C457.11 8.80582 455.354 9.34341 453.418 9.41577C451.505 9.62316 450.627 9.68697 449.772 9.6808C448.765 10.0044 448.48 10.139 448.053 10.0335C441.448 10.172 439.707 10.3896 437.985 10.5147C437.246 10.5912 436.469 10.6477 435.735 10.3367C438.332 9.92022 439.761 9.67968 440.911 8.98127C440.403 8.17562 439.946 8.095 439.567 8.28197C436.619 8.22296 436.082 8.28473 435.531 8.25648C434.834 8.17054 434.192 8.21716 433.539 8.40126C429.917 7.98135 429.659 7.8635 429.461 7.69574C428.667 7.22968 427.848 7.65354 427.019 7.59992C424.083 7.60842 423.34 7.66242 422.616 7.82892C420.553 7.75112 420.283 7.77075 419.934 7.72777C419.24 7.86932 418.531 7.92086 417.773 7.88483C414.515 7.59791 414.474 7.35036 414.629 7.04308C416.042 4.8226 416.163 4.51777 416.179 4.19781C413.392 4.28651 413.369 4.56147 413.196 4.75623C413.25 5.50377 412.99 5.79591 412.139 5.60726C408.184 6.48684 408.046 6.06417 407.886 5.71147C405.914 6.60625 405.846 6.81614 406.176 6.95158C404.788 8.28214 403.905 8.52843 402.961 8.18716C401.888 8.3107 401.277 8.12737 400.667 7.94405C395.109 8.84895 394.904 8.63616 394.573 8.9107C393.676 9.06698 392.738 9.1807 391.751 9.20686C385.485 10.1633 385.129 10.0753 384.952 10.2476C382.79 10.8146 382.31 10.8039 381.834 10.8158C381.064 11.1222 380.22 11.1836 379.376 11.2449C376.989 11.6917 375.725 11.6924 374.673 12.156C370.988 13.0159 370.414 13.0577 369.863 13.0294C368.789 13.1529 368.452 13.1775 368.107 13.157C365.324 13.0632 365.089 12.8754 364.661 12.9748C362.683 12.1622 362.27 12.3516 361.906 12.4236C360.551 12.7042 359.178 12.8724 357.819 13.1305C351.763 13.9122 351.516 13.8619 351.313 14.0816C349.393 15.0865 348.913 15.0758 348.736 15.2481C347.074 15.5283 345.376 15.1735 343.676 15.4337C343.057 15.6153 342.412 15.6394 341.725 15.621C338.823 16.4695 336.645 16.3091 334.51 16.4186C333.06 17.1616 332.07 17.3703 330.982 17.4038C326.828 18.1156 325.511 18.2113 324.18 18.217C319.169 18.0802 318.937 18.1199 318.715 18.2271C313.593 19.0776 310.794 19.3038 308.003 19.37C307.369 19.4616 306.765 19.5283 306.113 19.5074C304.263 19.6874 303.662 19.9815 302.938 19.9431C298.012 20.5288 294.523 20.9191 291.012 20.9693C287.948 21.0326 284.935 21.411 281.874 21.4968C280.729 21.8077 279.507 21.6461 278.303 21.8019C274.018 22.3411 269.589 22.0026 265.308 22.5642C259.944 22.9769 255.318 23.3131 250.674 23.5368Z" fill="white"/>
</svg>
