<svg width="409" height="173" viewBox="0 0 409 173" fill="none" xmlns="http://www.w3.org/2000/svg">
<path d="M36.7063 141.479C39.663 141.339 42.0495 142.011 43.8657 143.495C45.682 144.978 46.6538 147.063 46.7811 149.748C46.9083 152.433 46.138 154.6 44.4702 156.248C42.8024 157.897 40.4902 158.792 37.5335 158.932C34.5768 159.072 32.1903 158.4 30.374 156.917C28.5578 155.433 27.586 153.349 27.4587 150.664C27.3747 148.89 27.6931 147.329 28.4141 145.981C29.1504 144.617 30.229 143.548 31.65 142.776C33.0711 142.004 34.7565 141.572 36.7063 141.479ZM33.1928 156.062C34.2967 157.387 35.7277 158.008 37.4858 157.925C39.2438 157.842 40.6017 157.089 41.5594 155.666C42.5323 154.226 42.9623 152.315 42.8495 149.934C42.7752 148.368 42.4787 147.012 41.9599 145.868C41.4412 144.723 40.7355 143.859 39.8429 143.277C38.9504 142.695 37.9207 142.431 36.754 142.486C34.996 142.57 33.6305 143.331 32.6576 144.771C31.6999 146.194 31.2775 148.096 31.3903 150.477C31.5032 152.859 32.104 154.72 33.1928 156.062ZM54.4722 142.007L54.8028 148.983L57.9673 148.833C58.5579 148.789 59.0359 148.566 59.4012 148.164C59.7666 147.763 59.9353 147.266 59.9073 146.675L59.8971 146.459L60.1368 146.448L60.3993 151.986L60.1595 151.997L60.1504 151.805C60.1224 151.214 59.9075 150.735 59.5058 150.37C59.12 150.004 58.6311 149.827 58.039 149.839L54.8506 149.99L55.1358 156.007C55.1638 156.599 55.4403 157.026 55.9654 157.289C56.2112 157.406 56.4699 157.458 56.7416 157.445L57.0293 157.431L57.0646 157.67L49.7768 158.015L49.7655 157.775L50.0771 157.761C50.4926 157.741 50.8374 157.58 51.1115 157.279C51.4007 156.961 51.5435 156.594 51.5398 156.178L50.9069 142.825C50.856 142.427 50.6723 142.099 50.3558 141.842C50.0544 141.568 49.704 141.44 49.3045 141.459L48.9928 141.474L48.9815 141.234L58.1631 140.799C58.9463 140.762 59.5909 140.675 60.097 140.539C60.6024 140.387 60.9099 140.284 61.0195 140.231L61.2115 144.282L60.9718 144.294L60.9604 144.054C60.9271 143.351 60.6928 142.801 60.2576 142.405C59.8376 141.993 59.2756 141.795 58.5716 141.813L54.4722 142.007ZM94.631 139.311L94.4153 139.321C94.0157 139.34 93.6139 139.479 93.2097 139.738C92.8215 139.997 92.5501 140.354 92.3955 140.81L88.9805 153.923C88.7504 154.814 88.6532 155.636 88.6888 156.387C88.6926 156.467 88.696 156.539 88.699 156.603L88.4593 156.614L82.6844 145.283L79.3193 154.38C78.9956 155.325 78.8459 156.221 78.8701 157.069L78.6303 157.08L72.1622 141.769C71.9325 141.316 71.6205 140.986 71.2264 140.78C70.8314 140.559 70.4342 140.458 70.0346 140.476L69.8428 140.486L69.8315 140.246L77.1433 139.899L77.1546 140.139L76.9389 140.149C76.6033 140.165 76.3528 140.289 76.1876 140.521C76.0377 140.737 75.9672 140.94 75.9763 141.132C75.9854 141.324 76.0261 141.506 76.0983 141.679L79.4424 149.882L83.2862 139.224L83.5031 139.237L88.7725 149.536L90.7699 140.983C90.8095 140.805 90.8248 140.62 90.8157 140.429C90.8066 140.237 90.7172 140.041 90.5475 139.841C90.3931 139.624 90.1401 139.524 89.7885 139.54L89.5727 139.55L89.5613 139.311L94.6197 139.071L94.631 139.311ZM105.156 138.235C108.113 138.095 110.499 138.767 112.315 140.251C114.132 141.734 115.104 143.819 115.231 146.503C115.358 149.188 114.588 151.355 112.92 153.004C111.252 154.653 108.94 155.547 105.983 155.688C103.027 155.828 100.64 155.156 98.8238 153.672C97.0075 152.189 96.0357 150.104 95.9085 147.419C95.8244 145.645 96.1428 144.084 96.8639 142.737C97.6001 141.372 98.6787 140.304 100.1 139.532C101.521 138.76 103.206 138.328 105.156 138.235ZM101.642 152.818C102.746 154.143 104.177 154.764 105.935 154.681C107.694 154.597 109.051 153.844 110.009 152.421C110.982 150.982 111.412 149.071 111.299 146.69C111.225 145.124 110.928 143.768 110.41 142.623C109.891 141.479 109.185 140.615 108.293 140.033C107.4 139.45 106.37 139.187 105.204 139.242C103.446 139.325 102.08 140.087 101.107 141.527C100.15 142.949 99.7272 144.852 99.8401 147.233C99.9529 149.614 100.554 151.476 101.642 152.818ZM124.098 138.731L123.067 138.78C123.035 138.781 123.011 138.783 122.995 138.783L123.657 152.76C123.701 153.35 123.978 153.778 124.487 154.042C124.733 154.158 124.992 154.21 125.263 154.197L125.575 154.182L125.586 154.422L118.298 154.768L118.287 154.528L118.599 154.513C119.174 154.486 119.602 154.217 119.882 153.707C119.999 153.478 120.059 153.226 120.063 152.954L119.432 139.649C119.396 139.234 119.22 138.89 118.903 138.617C118.6 138.327 118.242 138.192 117.826 138.211L117.514 138.226L117.503 137.986L125.726 137.597C127.276 137.523 128.603 137.797 129.705 138.417C130.264 138.727 130.718 139.178 131.067 139.77C131.414 140.346 131.606 141.018 131.643 141.785C131.678 142.536 131.576 143.238 131.334 143.89C131.109 144.542 130.696 145.122 130.095 145.631C129.511 146.139 128.789 146.462 127.931 146.598C128.872 146.858 129.72 147.523 130.476 148.592C132.333 151.275 133.689 152.861 134.546 153.349C134.973 153.585 135.499 153.696 136.123 153.682L136.134 153.922L133.785 154.034C132.427 154.098 131.283 153.968 130.355 153.643C129.426 153.303 128.652 152.691 128.033 151.807C127.724 151.357 127.323 150.68 126.832 149.774C126.339 148.852 126.012 148.195 125.849 147.802C125.372 146.864 124.803 146.354 124.143 146.273L124.132 146.034L124.875 145.998C125.594 145.964 126.215 145.719 126.738 145.261C127.277 144.803 127.619 144.082 127.765 143.098C127.813 142.76 127.832 142.494 127.823 142.303C127.761 140.992 127.453 140.062 126.898 139.511C126.342 138.945 125.649 138.674 124.817 138.697C124.657 138.704 124.417 138.716 124.098 138.731ZM137.331 153.625C137.746 153.606 138.091 153.445 138.365 153.144C138.654 152.826 138.797 152.458 138.793 152.042L138.164 138.761C138.128 138.346 137.952 138.002 137.634 137.729C137.332 137.439 136.974 137.304 136.558 137.324L136.246 137.338L136.235 137.099L143.523 136.753L143.51 136.994L143.223 137.008C142.807 137.027 142.455 137.196 142.165 137.514C141.875 137.816 141.74 138.175 141.76 138.591L142.423 152.591L145.564 152.442C146.731 152.387 147.69 152.005 148.441 151.297C149.208 150.587 149.754 149.609 150.08 148.36L150.319 148.348L149.448 153.291L137.03 153.88L137.019 153.64L137.331 153.625ZM160.768 135.936C163.597 135.802 165.87 136.447 167.587 137.871C169.305 139.295 170.225 141.302 170.347 143.891C170.47 146.48 169.744 148.565 168.169 150.145C166.594 151.726 164.392 152.583 161.563 152.717L152.861 153.129L152.85 152.89L153.161 152.875C153.577 152.855 153.922 152.695 154.196 152.393C154.485 152.075 154.628 151.708 154.624 151.292L153.988 137.867C153.922 137.486 153.739 137.174 153.439 136.932C153.138 136.674 152.788 136.554 152.389 136.573L152.077 136.588L152.066 136.348L160.768 135.936ZM161.204 151.725C162.355 151.67 163.332 151.328 164.135 150.697C164.953 150.049 165.56 149.164 165.955 148.04C166.349 146.9 166.511 145.579 166.44 144.076C166.332 141.807 165.744 140.033 164.674 138.754C163.62 137.474 162.23 136.876 160.504 136.957L157.555 137.097L158.255 151.865L161.204 151.725ZM173.745 151.899C174.16 151.88 174.505 151.719 174.779 151.418C175.068 151.1 175.211 150.733 175.207 150.316L174.578 137.035C174.542 136.62 174.366 136.276 174.048 136.003C173.746 135.713 173.387 135.578 172.972 135.598L172.66 135.612L172.649 135.373L179.937 135.027L179.924 135.268L179.636 135.282C179.221 135.301 178.868 135.47 178.579 135.788C178.289 136.09 178.154 136.449 178.174 136.865L178.837 150.865L181.978 150.716C183.144 150.661 184.103 150.279 184.855 149.571C185.622 148.862 186.168 147.883 186.494 146.634L186.733 146.623L185.862 151.565L173.444 152.154L173.433 151.914L173.745 151.899ZM203.255 134.162L202.919 134.178C202.44 134.201 201.991 134.358 201.572 134.651C201.153 134.943 200.825 135.287 200.588 135.682L196.222 143.434L196.5 149.307C196.52 149.723 196.689 150.075 197.007 150.364C197.324 150.638 197.691 150.764 198.106 150.745L198.394 150.731L198.429 150.97L191.141 151.315L191.13 151.075L191.442 151.061C191.857 151.041 192.202 150.88 192.476 150.579C192.766 150.277 192.909 149.918 192.905 149.502L192.625 143.58L187.689 136.27C187.431 135.897 187.072 135.594 186.613 135.36C186.168 135.108 185.714 134.994 185.251 135.016L184.915 135.032L184.904 134.792L192.839 134.416L192.85 134.655L192.539 134.67C192.187 134.687 191.923 134.86 191.746 135.188C191.659 135.369 191.619 135.547 191.628 135.723C191.635 135.882 191.683 136.04 191.77 136.196L195.494 142.267L198.746 135.866C198.835 135.701 198.875 135.539 198.867 135.379C198.859 135.204 198.795 135.038 198.676 134.884C198.468 134.557 198.188 134.402 197.837 134.419L197.549 134.433L197.538 134.193L203.243 133.923L203.255 134.162ZM220.698 134.08L221.365 148.153C221.401 148.567 221.569 148.912 221.87 149.186C222.188 149.459 222.554 149.586 222.97 149.566L223.257 149.553L223.293 149.791L216.005 150.137L215.994 149.897L216.305 149.882C216.705 149.863 217.042 149.703 217.316 149.402C217.606 149.1 217.757 148.748 217.77 148.347L217.102 134.251L213.866 134.404C213.131 134.455 212.559 134.714 212.149 135.182C211.738 135.65 211.55 136.244 211.584 136.963L211.598 137.251L211.358 137.262L211.16 133.091C211.389 133.176 211.793 133.253 212.373 133.322C212.969 133.39 213.514 133.412 214.01 133.388L223.671 132.93C224.453 132.877 225.09 132.783 225.58 132.648C226.07 132.512 226.37 132.418 226.479 132.365L226.677 136.536L226.437 136.548L226.424 136.26C226.39 135.541 226.146 134.968 225.693 134.54C225.241 134.113 224.646 133.909 223.91 133.928L220.698 134.08ZM235.685 133.442L234.654 133.491C234.622 133.493 234.598 133.494 234.582 133.494L235.245 147.471C235.289 148.061 235.565 148.489 236.074 148.753C236.32 148.869 236.579 148.921 236.85 148.908L237.162 148.894L237.174 149.133L229.886 149.479L229.874 149.239L230.186 149.224C230.761 149.197 231.189 148.928 231.469 148.419C231.587 148.189 231.647 147.938 231.65 147.665L231.019 134.36C230.984 133.945 230.807 133.601 230.49 133.328C230.188 133.038 229.829 132.903 229.413 132.923L229.102 132.937L229.09 132.698L237.313 132.308C238.863 132.234 240.19 132.508 241.292 133.128C241.852 133.438 242.306 133.889 242.654 134.481C243.002 135.058 243.194 135.729 243.23 136.496C243.266 137.248 243.163 137.949 242.921 138.601C242.696 139.253 242.283 139.833 241.682 140.342C241.098 140.85 240.376 141.173 239.518 141.31C240.459 141.569 241.308 142.234 242.063 143.303C243.92 145.986 245.277 147.572 246.133 148.06C246.56 148.296 247.086 148.407 247.71 148.394L247.722 148.633L245.372 148.745C244.014 148.809 242.87 148.679 241.942 148.355C241.013 148.014 240.239 147.402 239.62 146.519C239.311 146.069 238.91 145.391 238.419 144.485C237.927 143.563 237.599 142.906 237.436 142.513C236.959 141.575 236.391 141.065 235.73 140.985L235.719 140.745L236.462 140.71C237.181 140.675 237.802 140.43 238.325 139.973C238.864 139.515 239.206 138.794 239.352 137.81C239.4 137.471 239.419 137.206 239.41 137.014C239.348 135.703 239.04 134.773 238.485 134.223C237.93 133.656 237.236 133.385 236.404 133.408C236.244 133.416 236.005 133.427 235.685 133.442ZM265.292 147.56L265.507 147.55L265.519 147.79L257.871 148.152L257.86 147.913L258.076 147.902C258.427 147.886 258.678 147.77 258.828 147.554C258.993 147.322 259.071 147.11 259.062 146.919C259.053 146.727 259.004 146.537 258.915 146.349L257.601 143.456L251.991 143.722L250.884 146.73C250.814 146.941 250.784 147.143 250.793 147.335C250.801 147.51 250.89 147.706 251.061 147.923C251.246 148.122 251.523 148.213 251.891 148.196L252.082 148.186L252.094 148.426L246.964 148.669L246.952 148.43L247.168 148.419C247.536 148.402 247.898 148.273 248.255 148.031C248.612 147.79 248.9 147.44 249.118 146.981L254.062 134.181C254.738 132.563 255.088 131.497 255.111 130.984L255.327 130.974L263.188 146.267C263.45 146.719 263.77 147.056 264.149 147.278C264.527 147.484 264.908 147.579 265.292 147.56ZM252.351 142.696L257.145 142.468L254.54 136.681L252.351 142.696ZM280.524 130.5L280.308 130.51C279.941 130.528 279.579 130.657 279.222 130.898C278.865 131.139 278.577 131.489 278.358 131.948L273.271 144.755C272.611 146.373 272.269 147.438 272.245 147.952L272.029 147.962L264.024 132.652C263.763 132.216 263.443 131.894 263.065 131.688C262.686 131.466 262.305 131.364 261.921 131.382L261.729 131.391L261.718 131.151L269.341 130.79L269.353 131.03L269.161 131.039C268.809 131.055 268.551 131.18 268.386 131.412C268.236 131.627 268.165 131.831 268.174 132.022C268.183 132.214 268.225 132.405 268.298 132.593L272.842 142.301L276.592 132.2C276.662 131.989 276.693 131.795 276.685 131.619C276.676 131.427 276.578 131.232 276.393 131.032C276.222 130.816 275.961 130.716 275.61 130.733L275.394 130.743L275.383 130.504L280.513 130.26L280.524 130.5ZM283.084 146.717C283.5 146.697 283.845 146.537 284.119 146.236C284.408 145.918 284.551 145.55 284.547 145.134L283.914 131.781C283.84 131.224 283.556 130.821 283.064 130.572C282.818 130.455 282.567 130.403 282.312 130.415L282 130.43L281.989 130.19L291.17 129.755C291.666 129.732 292.207 129.658 292.794 129.534C293.38 129.41 293.791 129.295 294.027 129.187L294.225 133.383L293.986 133.394L293.972 133.106C293.938 132.387 293.695 131.822 293.243 131.411C292.806 130.983 292.228 130.77 291.507 130.772L287.479 130.963L287.81 137.94L290.974 137.79C291.565 137.746 292.043 137.523 292.408 137.121C292.773 136.703 292.942 136.207 292.914 135.631L292.904 135.416L293.144 135.404L293.406 140.942L293.167 140.953L293.158 140.762C293.12 139.962 292.772 139.386 292.115 139.033C291.787 138.872 291.431 138.793 291.046 138.795L287.858 138.946L288.177 145.683L291.318 145.534C292.484 145.479 293.443 145.097 294.195 144.388C294.962 143.679 295.508 142.7 295.833 141.452L296.073 141.44L295.202 146.383L282.784 146.972L282.773 146.732L283.084 146.717ZM299.313 145.948C299.728 145.928 300.073 145.768 300.347 145.466C300.637 145.148 300.779 144.781 300.776 144.365L300.146 131.084C300.11 130.669 299.934 130.325 299.617 130.052C299.315 129.762 298.956 129.627 298.54 129.646L298.229 129.661L298.217 129.421L305.505 129.076L305.493 129.317L305.205 129.33C304.789 129.35 304.437 129.519 304.148 129.837C303.858 130.139 303.722 130.498 303.742 130.913L304.406 144.914L307.546 144.765C308.713 144.71 309.672 144.328 310.423 143.619C311.19 142.91 311.737 141.931 312.062 140.682L312.302 140.671L311.431 145.614L299.013 146.202L299.001 145.963L299.313 145.948ZM315.07 143.207C315.015 142.056 315.217 141.062 315.673 140.223L315.889 140.213C315.879 140.341 315.877 140.47 315.883 140.597C315.936 141.7 316.373 142.649 317.195 143.442C318.033 144.22 319.139 144.576 320.514 144.511C321.585 144.46 322.403 144.165 322.971 143.625C323.554 143.085 323.827 142.423 323.79 141.64C323.745 140.697 323.067 139.905 321.755 139.262L317.453 136.703C316.599 136.263 315.972 135.716 315.573 135.062C315.189 134.391 314.98 133.704 314.947 133.001C314.875 131.499 315.292 130.318 316.196 129.458C317.117 128.598 318.32 128.132 319.806 128.062C320.685 128.02 321.776 128.048 323.078 128.147L324.588 128.075L324.444 131.614L324.204 131.625C324.164 130.794 323.821 130.146 323.175 129.68C322.543 129.197 321.716 128.98 320.693 129.029C319.446 129.088 318.562 129.514 318.039 130.308C317.768 130.689 317.644 131.111 317.666 131.575C317.703 132.342 318.296 133.027 319.445 133.629L324.165 136.385C325.643 137.148 326.42 138.336 326.497 139.95C326.578 141.66 326.056 142.998 324.933 143.965C323.825 144.914 322.312 145.435 320.394 145.525C319.307 145.577 318.294 145.497 317.355 145.285C316.431 145.056 315.743 144.729 315.29 144.302C315.164 144.003 315.09 143.638 315.07 143.207Z" fill="white"/>
<path d="M6.37649 63.7102C9.90895 61.1684 13.1401 59.2191 16.0701 57.8622C19.0377 56.4601 22.6636 55.165 26.948 53.9767C30.1725 53.095 33.5482 52.4923 37.0751 52.1685C42.0127 51.7154 46.8922 51.7696 51.7137 52.3312C56.5352 52.8929 60.8084 54.0907 64.5333 55.9246C68.2997 57.7547 70.7859 60.2253 71.992 63.3364C72.9525 66.0516 73.5318 68.488 73.7298 70.6456C74.522 79.276 71.3311 86.4519 64.1574 92.1732C56.9836 97.8945 47.6547 102.245 36.1705 105.223C37.1074 106.769 38.9329 108.652 41.6472 110.871C44.3991 113.046 47.3737 115.367 50.571 117.835C53.7683 120.303 56.5941 122.826 59.0483 125.404C61.5026 127.982 63.21 130.629 64.1705 133.344C64.4537 133.695 64.6182 134.119 64.6639 134.617C64.721 135.239 64.5199 136.011 64.0604 136.932C63.6425 137.849 63.3942 138.562 63.3154 139.071C63.0634 139.973 62.7776 140.962 62.4579 142.037C62.1758 143.067 61.8259 144.041 61.4079 144.958L24.9411 114.852L14.1443 146.974C11.6959 146.738 8.80186 145.979 5.46224 144.695C4.98297 144.488 4.00009 144.265 2.51358 144.024C1.06476 143.739 0.226903 143.272 0 142.623L24.0149 71.2546C20.3449 71.8425 17.3484 72.4732 15.0252 73.1467C12.7435 73.8164 9.86612 74.8337 6.393 76.1985C6.33166 75.0744 6.34319 73.1486 6.42759 70.4211C6.54967 67.6484 6.53264 65.4114 6.37649 63.7102ZM39.6121 67.5008L29.5408 94.5345C36.7132 91.5331 41.8227 89.3067 44.8695 87.8555C47.9578 86.4005 50.7988 84.7589 53.3926 82.9309C56.024 81.0575 58.0253 78.9282 59.3963 76.5429C60.8089 74.1538 61.4102 71.5881 61.2004 68.8458C59.6555 66.6026 55.8127 65.7628 49.6718 66.3265C48.6345 66.4217 46.9994 66.6136 44.7664 66.9022C42.5335 67.1909 40.8153 67.3904 39.6121 67.5008Z" fill="white"/>
<path d="M124.254 74.4812C124.469 74.0849 124.917 73.4998 125.6 72.7259C126.282 71.952 126.707 71.3481 126.877 70.9141C129.283 70.6932 131.283 70.5934 132.875 70.6146C134.036 70.508 134.881 70.5978 135.41 70.884C135.938 71.1703 136.274 71.4114 136.418 71.6075L112.886 138.664C112.535 138.947 112.132 139.11 111.675 139.152C111.343 139.182 110.858 139.143 110.221 139.034C109.625 138.921 109.11 138.78 108.676 138.611C108.283 138.438 107.785 138.253 107.181 138.058C106.733 138.183 105.909 138.551 104.71 139.163C103.552 139.772 102.724 140.099 102.226 140.144C101.479 140.213 101.072 139.874 101.003 139.127C100.866 137.633 101.837 134.762 103.916 130.512C102.819 132.245 100.684 134.282 97.5098 136.623C94.3732 138.92 91.6886 140.442 89.456 141.191C88.6414 141.433 87.9229 141.583 87.3005 141.64C85.6823 141.788 83.9299 141.615 82.0434 141.118C80.1529 140.58 78.4867 139.75 77.0447 138.627C75.6442 137.5 74.7963 136.239 74.5008 134.844C73.945 133.347 73.5852 131.706 73.4214 129.922C73.151 126.976 73.5725 123.59 74.6858 119.764C75.7952 115.896 77.9941 111.134 81.2825 105.476C85.9003 97.437 91.598 90.4495 98.3755 84.5135C105.191 78.5323 112.312 75.2008 119.739 74.5191C121.191 74.3858 122.696 74.3732 124.254 74.4812ZM119.793 84.6817C114.796 85.8517 109.621 89.1928 104.269 94.705C98.9173 100.217 94.5656 106.37 91.2141 113.163C87.8626 119.956 86.3868 125.531 86.7867 129.888C89.1857 129.584 91.4502 128.727 93.5803 127.318C95.7482 125.864 97.7534 124.007 99.5961 121.745C101.439 119.484 103.031 117.225 104.372 114.968C105.709 112.669 107.375 109.629 109.372 105.848C115.258 94.7634 118.732 87.708 119.793 84.6817Z" fill="white"/>
<path d="M199.397 29.9267C200.301 29.2997 200.956 28.9049 201.359 28.7424C201.763 28.5798 202.23 28.4323 202.762 28.2998C203.331 28.122 204.165 27.8572 205.262 27.5054C205.911 27.2785 206.484 27.1422 206.982 27.0965C208.144 26.9899 209.174 27.0418 210.072 27.2523C210.97 27.4627 211.566 27.8055 211.861 28.2806L176.151 133.61C175.487 133.671 174.785 133.547 174.046 133.239C173.348 132.926 172.64 132.51 171.923 131.99C171.247 131.466 170.643 131.041 170.111 130.713C167.746 130.93 166.346 130.724 165.912 130.094C165.968 129.336 166.046 128.596 166.148 127.876C166.286 127.11 166.465 126.319 166.683 125.504C166.943 124.685 167.183 123.889 167.405 123.116C167.623 122.301 167.766 121.346 167.833 120.252C159.396 130.901 152.211 136.498 146.277 137.043C141.838 137.45 138.252 134.85 135.519 129.243C134.896 127.92 134.487 126.2 134.293 124.084C133.843 119.188 134.668 113.359 136.767 106.597C138.862 99.7936 142.216 93.0213 146.827 86.2799C151.439 79.5386 157.213 73.8411 164.15 69.1876C171.087 64.534 178.995 61.7998 187.875 60.9848L199.397 29.9267ZM183.007 72.2268C176.309 74.0131 170.22 77.8775 164.74 83.8199C159.302 89.7585 155.063 96.2355 152.025 103.251C148.983 110.225 147.647 115.724 148.016 119.749C148.165 121.367 148.56 122.481 149.202 123.092C151.193 122.909 153.403 121.681 155.83 119.408C158.258 117.135 160.342 114.768 162.083 112.307C163.865 109.842 165.982 106.698 168.434 102.874C170.928 99.0472 172.626 96.5692 173.526 95.4405C174.84 92.4328 176.613 88.2741 178.846 82.9645C181.12 77.6511 182.507 74.0719 183.007 72.2268Z" fill="white"/>
<path d="M252.099 72.538C254.429 70.5668 257.924 68.0703 262.584 65.0484C267.244 62.0265 271.628 60.327 275.735 59.95C278.1 59.7329 279.985 60.2085 281.389 61.3767C283.609 63.2232 284.852 65.5986 285.119 68.5031C285.26 70.0383 285.159 71.6794 284.818 73.4263C284.513 75.1278 284.036 76.9918 283.385 79.0181C282.776 81.0406 282.181 82.9989 281.602 84.8931C279.899 90.9492 278.129 97.1996 276.294 103.644C274.455 110.048 272.794 115.2 271.311 119.102C269.869 123 268.617 125.082 267.553 125.347C266.226 125.468 265.146 125.107 264.316 124.263C263.523 123.373 262.87 122.868 262.357 122.748C262.006 122.571 261.176 122.417 259.866 122.286C258.553 122.114 257.803 121.911 257.614 121.677C257.364 120.78 257.218 120.103 257.176 119.646C256.929 116.949 257.509 113.465 258.916 109.193C260.319 104.88 262.363 99.5672 265.047 93.2538C267.727 86.8989 269.737 81.9026 271.077 78.2649C272.459 74.6234 273.06 71.8276 272.881 69.8774C268.574 71.7371 264.864 74.1697 261.751 77.1752C258.675 80.1354 256.055 83.7233 253.89 87.9388C252.896 90.7916 251.38 95.0103 249.34 100.595C247.296 106.138 245.006 111.955 242.469 118.046C239.927 124.095 238.246 127.2 237.424 127.359C236.511 127.443 235.775 127.406 235.217 127.248C234.7 127.086 234.196 126.839 233.705 126.508C233.215 126.176 232.633 125.769 231.961 125.287C231.316 125.095 230.577 125.016 229.743 125.051C228.906 125.044 228.351 124.928 228.079 124.702C227.804 124.434 227.614 123.74 227.511 122.62C227.411 120.16 228.038 116.965 229.393 113.033C230.748 109.101 232.675 104.112 235.174 98.0668C237.715 92.0176 239.605 87.0742 240.843 83.2366C242.122 79.3953 242.661 76.3751 242.459 74.176C239.34 75.2991 236.64 76.6557 234.359 78.2458C232.12 79.8321 230.207 81.5559 228.62 83.417C227.03 85.2366 225.427 87.3713 223.811 89.8209C223.254 91.5039 222.264 94.3981 220.842 98.5036C219.419 102.609 217.498 107.66 215.078 113.656C212.695 119.607 210.108 125.389 207.318 131.001C206.488 131.077 205.76 130.893 205.133 130.448C204.552 130.041 203.957 129.489 203.349 128.792C202.783 128.091 202.368 127.668 202.103 127.525C201.839 127.382 201.124 127.343 199.959 127.408C198.831 127.428 197.922 127.323 197.231 127.094C196.541 126.864 196.133 126.295 196.007 125.386C201.423 110.537 205.512 99.7014 208.275 92.8787C209.318 90.1051 211.184 84.9128 213.875 77.3017C216.607 69.6867 218.257 65.5603 218.827 64.9223C219.211 64.5522 219.59 64.3501 219.963 64.3158C220.337 64.2815 220.899 64.481 221.65 64.9142C222.401 65.3473 222.943 65.5487 223.275 65.5182C223.644 65.4424 224.329 65.1495 225.328 64.6394C226.365 64.0839 227.091 63.7872 227.506 63.7491C228.045 63.6996 228.524 63.9066 228.943 64.3703C228.812 65.2192 228.543 66.3945 228.137 67.8962C227.727 69.3564 227.425 70.3884 227.229 70.9922C227.033 71.5959 226.904 72.4656 226.841 73.6011C228.752 72.0867 230.682 70.5497 232.631 68.99C234.622 67.4266 236.61 66.0725 238.597 64.9277C240.584 63.783 242.47 63.1287 244.254 62.965C246.868 62.7251 249.085 63.6304 250.905 65.6809C251.596 66.3707 252.018 67.5454 252.17 69.2051C252.25 70.0764 252.273 70.7856 252.24 71.3326C252.203 71.8381 252.156 72.2399 252.099 72.538Z" fill="white"/>
<path d="M339.923 54.6862C340.138 54.2899 340.586 53.7048 341.268 52.9309C341.95 52.1569 342.376 51.553 342.545 51.119C344.952 50.8981 346.951 50.7983 348.543 50.8196C349.705 50.7129 350.55 50.8028 351.078 51.089C351.607 51.3752 351.943 51.6164 352.086 51.8124L328.554 118.869C328.203 119.152 327.8 119.315 327.344 119.357C327.012 119.387 326.527 119.348 325.889 119.239C325.293 119.126 324.778 118.985 324.344 118.816C323.952 118.643 323.454 118.458 322.85 118.263C322.401 118.388 321.577 118.756 320.378 119.368C319.22 119.977 318.393 120.304 317.895 120.349C317.148 120.418 316.74 120.079 316.672 119.332C316.535 117.838 317.505 114.967 319.584 110.717C318.488 112.45 316.352 114.487 313.178 116.828C310.042 119.125 307.357 120.647 305.124 121.396C304.31 121.638 303.591 121.788 302.969 121.845C301.351 121.993 299.598 121.819 297.712 121.323C295.821 120.785 294.155 119.955 292.713 118.832C291.313 117.705 290.465 116.444 290.169 115.049C289.613 113.552 289.254 111.911 289.09 110.127C288.819 107.181 289.241 103.795 290.354 99.9688C291.464 96.1012 293.663 91.3386 296.951 85.681C301.569 77.642 307.266 70.6545 314.044 64.7185C320.859 58.7372 327.98 55.4057 335.407 54.724C336.86 54.5907 338.365 54.5781 339.923 54.6862ZM335.461 64.8866C330.464 66.0566 325.29 69.3977 319.938 74.91C314.586 80.4222 310.234 86.5749 306.883 93.368C303.531 100.161 302.055 105.736 302.455 110.093C304.854 109.789 307.119 108.932 309.249 107.523C311.417 106.069 313.422 104.211 315.265 101.95C317.107 99.689 318.699 97.4299 320.04 95.1729C321.377 92.8744 323.044 89.8344 325.04 86.0527C330.926 74.9683 334.4 67.9129 335.461 64.8866Z" fill="white"/>
<path d="M380.847 54.4447C382.739 52.7228 386.708 51.0614 392.754 49.4605C394.1 49.0859 395.354 48.8452 396.516 48.7386C400.375 48.3844 403.297 49.225 405.283 51.2603C407.307 53.2504 408.494 56.154 408.844 59.9713C409.103 62.7928 408.893 65.9712 408.213 69.5064C407.571 72.9964 406.518 76.5659 405.054 80.215C403.631 83.8603 401.835 87.5399 399.665 91.2537C397.496 94.9676 395.143 98.2798 392.606 101.191C389.38 104.792 385.347 108.259 380.506 111.59C375.665 114.921 371.274 116.768 367.332 117.13C364.262 117.412 361.704 116.663 359.658 114.884L346.59 144.829C345.707 144.785 344.981 144.621 344.411 144.339C343.8 144.06 343.237 143.631 342.724 143.05C342.172 142.515 341.697 142.119 341.297 141.863C340.836 141.403 340.087 141.221 339.05 141.316C338.718 141.347 338.203 141.436 337.505 141.583C336.807 141.731 336.313 141.818 336.023 141.845C335.608 141.883 335.364 141.508 335.292 140.72L369.516 51.3423C369.848 51.3119 372.158 50.7233 376.446 49.5765C377.544 49.2247 378.715 48.9917 379.96 48.8775C381.08 48.7746 381.821 48.874 382.184 49.1754C382.188 49.6772 382.092 50.46 381.897 51.524C381.739 52.5426 381.389 53.5162 380.847 54.4447ZM377.003 71.3669C371.871 82.9259 367.694 93.0375 364.473 101.702C365.586 102.436 366.911 102.733 368.446 102.592C370.562 102.398 372.881 101.453 375.403 99.7569C377.922 98.0194 380.374 95.786 382.759 93.0565C385.182 90.2817 387.143 87.4866 388.642 84.6712C392.936 76.2853 394.901 70.1215 394.539 66.1798C394.296 63.5243 392.763 62.326 389.942 62.585C387.411 62.8173 384.988 63.7719 382.673 65.4488C380.4 67.1219 378.51 69.0946 377.003 71.3669Z" fill="white"/>
<path d="M138.441 35.2906C138.17 33.4918 137.574 31.5258 136.214 30.1264C132.475 26.2764 131.32 22.74 131.703 19.7221C132.134 16.3263 132.011 14.9241 131.879 13.4276C131.824 12.7962 131.767 12.148 131.75 11.3261C131.691 8.55634 133.831 9.04319 134.374 9.3144C134.404 9.32949 134.454 9.36416 134.521 9.41754C137.319 11.4551 140.984 15.2998 142.787 21.1659C143.526 23.5683 143.594 25.2791 143.258 26.4753C145.257 24.4587 147.797 22.9203 150.736 22.1111C153.674 21.3018 156.644 21.3226 159.394 22.0312C158.492 21.1761 157.675 19.6714 157.079 17.2297C155.625 11.2674 156.804 6.08845 158.164 2.90594C158.182 2.8584 158.199 2.81952 158.213 2.78987C158.222 2.76931 158.231 2.75315 158.238 2.74152C158.565 2.23088 160.155 0.716844 161.522 3.1261C161.928 3.84097 162.211 4.42692 162.487 4.99768C163.14 6.35049 163.752 7.61794 165.861 10.3143C167.735 12.7106 168.554 16.3393 167.313 21.5612C166.862 23.4592 167.356 25.4535 168.045 27.1371C171.831 30.4819 175.331 34.5991 176.617 39.2684C178.208 45.0438 174.769 51.0279 168.937 52.6343C167.629 52.9944 166.355 53.5142 165.235 54.2759C163.745 55.2889 162.065 56.0787 160.23 56.5841C158.395 57.0894 156.548 57.2711 154.75 57.1637C153.397 57.0829 152.036 57.289 150.729 57.6491C144.897 59.2554 138.879 55.8757 137.289 50.1003C136.002 45.4309 136.901 40.1024 138.441 35.2906Z" fill="white"/>
</svg>
